<svg width="80" height="81" viewBox="0 0 80 81" fill="none" xmlns="http://www.w3.org/2000/svg">
<g clip-path="url(#clip0_6511_667)">
<g clip-path="url(#clip1_6511_667)">
<g clip-path="url(#clip2_6511_667)">
<path d="M76.125 38.031C77.8125 38.031 78.9375 36.906 78.9375 35.2185C78.9375 33.531 77.8125 32.406 76.125 32.406H67.6875V26.781H76.125C77.8125 26.781 78.9375 25.656 78.9375 23.9685C78.9375 22.281 77.8125 21.156 76.125 21.156H67.6875C67.6875 16.3748 64.0312 12.7185 59.25 12.7185V4.28101C59.25 2.59351 58.125 1.46851 56.4375 1.46851C54.75 1.46851 53.625 2.59351 53.625 4.28101V12.7185H48V4.28101C48 2.59351 46.875 1.46851 45.1875 1.46851C43.5 1.46851 42.375 2.59351 42.375 4.28101V12.7185H36.75V4.28101C36.75 2.59351 35.625 1.46851 33.9375 1.46851C32.25 1.46851 31.125 2.59351 31.125 4.28101V12.7185H25.5V4.28101C25.5 2.59351 24.375 1.46851 22.6875 1.46851C21 1.46851 19.875 2.59351 19.875 4.28101V12.7185C15.0938 12.7185 11.4375 16.3748 11.4375 21.156H3C1.3125 21.156 0.1875 22.281 0.1875 23.9685C0.1875 25.656 1.3125 26.781 3 26.781H11.4375V32.406H3C1.3125 32.406 0.1875 33.531 0.1875 35.2185C0.1875 36.906 1.3125 38.031 3 38.031H11.4375V43.656H3C1.3125 43.656 0.1875 44.781 0.1875 46.4685C0.1875 48.156 1.3125 49.281 3 49.281H11.4375V54.906H3C1.3125 54.906 0.1875 56.031 0.1875 57.7185C0.1875 59.406 1.3125 60.531 3 60.531H11.4375C11.4375 65.3123 15.0938 68.9685 19.875 68.9685V77.406C19.875 79.0935 21 80.2185 22.6875 80.2185C24.375 80.2185 25.5 79.0935 25.5 77.406V68.9685H31.125V77.406C31.125 79.0935 32.25 80.2185 33.9375 80.2185C35.625 80.2185 36.75 79.0935 36.75 77.406V68.9685H42.375V77.406C42.375 79.0935 43.5 80.2185 45.1875 80.2185C46.875 80.2185 48 79.0935 48 77.406V68.9685H53.625V77.406C53.625 79.0935 54.75 80.2185 56.4375 80.2185C58.125 80.2185 59.25 79.0935 59.25 77.406V68.9685C64.0312 68.9685 67.6875 65.3123 67.6875 60.531H76.125C77.8125 60.531 78.9375 59.406 78.9375 57.7185C78.9375 56.031 77.8125 54.906 76.125 54.906H67.6875V49.281H76.125C77.8125 49.281 78.9375 48.156 78.9375 46.4685C78.9375 44.781 77.8125 43.656 76.125 43.656H67.6875V38.031H76.125ZM56.4375 49.281C56.4375 54.0623 52.7812 57.7185 48 57.7185H31.125C26.3438 57.7185 22.6875 54.0623 22.6875 49.281V32.406C22.6875 27.6248 26.3438 23.9685 31.125 23.9685H48C52.7812 23.9685 56.4375 27.6248 56.4375 32.406V49.281Z" fill="#3F51B5"/>
</g>
</g>
</g>
<defs>
<clipPath id="clip0_6511_667">
<rect y="0.719971" width="80" height="80" rx="10" fill="white"/>
</clipPath>
<clipPath id="clip1_6511_667">
<rect width="80" height="80" fill="white" transform="translate(0 0.719971)"/>
</clipPath>
<clipPath id="clip2_6511_667">
<rect width="80" height="80" fill="white" transform="translate(0 0.719971)"/>
</clipPath>
</defs>
</svg>
