<svg width="83" height="83" viewBox="0 0 83 83" fill="none" xmlns="http://www.w3.org/2000/svg">
<g clip-path="url(#clip0_8719_278)">
<path d="M60.7109 22.0332V34.8516H76.1931V22.0332" fill="#FFBB00"/>
<path d="M76.1874 21.9482H60.8066C57.975 21.9482 55.6797 19.6529 55.6797 16.8213H81.3143C81.3143 19.6529 79.0189 21.9482 76.1874 21.9482Z" fill="#3F51B5"/>
<path d="M55.7187 24.3637V61.6538H1.78125V7.88281H55.7187V14.3752" fill="#FFBB00"/>
<path d="M51.8329 11.6943H5.69141V57.8358H51.8329V11.6943Z" fill="#3F51B5"/>
<path d="M28.7626 47.5831C35.8414 47.5831 41.5799 41.8446 41.5799 34.7658C41.5799 27.687 35.8414 21.9485 28.7626 21.9485C21.6838 21.9485 15.9453 27.687 15.9453 34.7658C15.9453 41.8446 21.6838 47.5831 28.7626 47.5831Z" fill="white"/>
<path d="M53.0844 59.0851H4.44531V10.4458H53.0846V59.0851H53.0844ZM6.94231 56.5881H50.5874V12.943H6.94231V56.5881Z" fill="black"/>
<path d="M24.919 32.3535H22.4219V37.1813H24.919V32.3535Z" fill="#FFBB00"/>
<path d="M35.0753 32.3535H32.5781V37.1813H35.0753V32.3535Z" fill="#FFBB00"/>
<path d="M28.761 20.6995C21.0051 20.6995 14.6953 27.0093 14.6953 34.7653C14.6953 42.5214 21.0051 48.8312 28.761 48.8312C36.5171 48.8312 42.8269 42.5214 42.8269 34.7653C42.8271 27.0095 36.5171 20.6995 28.761 20.6995ZM29.9124 46.2766V43.6747H27.4152V46.2534C21.6684 45.5841 17.1925 40.689 17.1925 34.7653C17.1925 28.8418 21.6685 23.9468 27.4152 23.2775V25.8619H29.9124V23.2541C35.7528 23.8339 40.3298 28.7749 40.3298 34.7653C40.3299 40.7558 35.753 45.6968 29.9124 46.2766Z" fill="black"/>
<path d="M33.9057 51.4998H31.2422V53.9969H33.9057V51.4998Z" fill="white"/>
<path d="M30.0776 51.4998H27.4141V53.9969H30.0776V51.4998Z" fill="white"/>
<path d="M26.2495 51.4998H23.5859V53.9969H26.2495V51.4998Z" fill="white"/>
<path d="M56.8815 62.8191H0.613281V6.71753H56.8815V14.3752H54.3845V9.21469H3.11044V60.3222H54.3845V24.3637H56.8815V62.8191Z" fill="black"/>
<path d="M74.8614 37.5144H62.043V40.0116H74.8614V37.5144Z" fill="#3F51B5"/>
<path d="M76.193 15.5727V13.0437H73.6958V15.5727H64.5397V13.0437H62.0426V15.5727H54.4297V16.8213C54.4297 19.9056 56.6314 22.4849 59.5454 23.0712V36.0172H77.3581V23.0869C80.3156 22.5347 82.5615 19.9362 82.5615 16.8213V15.5727H76.193ZM62.0427 33.52V23.1968H74.8611V33.52H62.0427ZM76.186 20.6996H60.8052C59.1032 20.6996 57.6538 19.5976 57.133 18.0699H79.858C79.3373 19.5978 77.8881 20.6996 76.186 20.6996Z" fill="black"/>
<path d="M76.1925 2.72217H73.6953V11.5453H76.1925V2.72217Z" fill="#FFBB00"/>
<path d="M64.5401 2.72217H62.043V11.5453H64.5401V2.72217Z" fill="#FFBB00"/>
<path d="M72.3649 41.1768H64.707V43.6739H72.3649V41.1768Z" fill="#FFBB00"/>
<path d="M69.7003 45.1738H67.2031V47.671H69.7003V45.1738Z" fill="#3F51B5"/>
<path d="M63.5795 80.9649H30.8953C28.4399 80.9649 26.4425 78.9486 26.4425 76.4701C26.4425 73.9917 28.4399 71.9754 30.8953 71.9754H46.2762C47.3544 71.9754 48.2319 71.0966 48.2319 70.0163C48.2319 68.937 47.3544 68.0589 46.2762 68.0589L0.5625 67.9667L0.567465 65.4695L46.2786 65.5619C48.7313 65.5619 50.7287 67.56 50.7287 70.0163C50.7287 72.4735 48.7313 74.4725 46.2759 74.4725H30.895C29.8349 74.4725 28.9393 75.3873 28.9393 76.4701C28.9393 77.5531 29.8349 78.4678 30.895 78.4678H63.5793C65.7179 78.4678 67.4577 76.7077 67.4577 74.5441L67.2479 48.8746L69.745 48.8542L69.9548 74.534C69.955 78.0845 67.0949 80.9649 63.5795 80.9649Z" fill="black"/>
<path d="M69.7003 27.1931H67.2031V29.6903H69.7003V27.1931Z" fill="white"/>
</g>
<defs>
<clipPath id="clip0_8719_278">
<rect width="82" height="82" fill="white" transform="translate(0.5625 0.843506)"/>
</clipPath>
</defs>
</svg>
