<svg width="80" height="81" viewBox="0 0 80 81" fill="none" xmlns="http://www.w3.org/2000/svg">
<g clip-path="url(#clip0_6511_695)">
<g clip-path="url(#clip1_6511_695)">
<path fill-rule="evenodd" clip-rule="evenodd" d="M38.7298 20.7973V13.6055C38.7298 13.045 38.2775 12.5904 37.7165 12.5904H28.4509C27.8899 12.5904 27.4286 13.045 27.4286 13.6055C27.4286 14.2711 27.4286 20.7973 27.4286 20.7973C27.4286 21.3574 26.9761 21.8123 26.4151 21.8123C25.8541 21.8123 25.4016 21.3574 25.4016 20.7973C25.4016 20.7973 25.4016 14.2711 25.4016 13.6055C25.4016 11.9235 26.768 10.5601 28.4509 10.5601H37.7165C39.3995 10.5601 40.7656 11.9235 40.7656 13.6055C40.7656 14.2711 40.7656 20.7973 40.7656 20.7973C40.7656 21.3574 40.3041 21.8123 39.7431 21.8123C39.1821 21.8123 38.7298 21.3574 38.7298 20.7973Z" fill="#333333"/>
<path fill-rule="evenodd" clip-rule="evenodd" d="M9.82203 45.8596H56.3375L60.7305 53.1722V70.0954C60.7305 70.9031 60.4064 71.6779 59.8353 72.249C59.2643 72.8201 58.4901 73.1413 57.6829 73.1413C48.0239 73.1413 18.1355 73.1413 8.47659 73.1413C7.6639 73.1413 6.88968 72.8201 6.3186 72.249C5.74752 71.6779 5.42911 70.9031 5.42911 70.0954C5.42911 64.5048 5.42911 53.1722 5.42911 53.1722L9.82203 45.8596Z" fill="#333333"/>
<path fill-rule="evenodd" clip-rule="evenodd" d="M9.82203 45.8604H56.3375L60.7305 38.5478V21.6246C60.7305 20.8169 60.4064 20.042 59.8353 19.471C59.2643 18.8999 58.4901 18.5787 57.6829 18.5787C48.0239 18.5787 18.1355 18.5787 8.47659 18.5787C7.6639 18.5787 6.88968 18.8999 6.3186 19.471C5.74752 20.042 5.42911 20.8169 5.42911 21.6246V38.5478L9.82203 45.8604Z" fill="#333333"/>
<path fill-rule="evenodd" clip-rule="evenodd" d="M60.7266 25.3539V21.6234C60.7266 20.8163 60.4068 20.0397 59.8383 19.4662C59.2647 18.8977 58.4881 18.5779 57.6811 18.5779H8.47088C7.66382 18.5779 6.89217 18.8977 6.3186 19.4662C5.75011 20.0397 5.42537 20.8163 5.42537 21.6234V38.5462V25.3539C5.42537 24.5469 5.75011 23.7702 6.3186 23.2017C6.89217 22.6281 7.66382 22.3084 8.47088 22.3084C18.1353 22.3084 48.0217 22.3084 57.6811 22.3084C58.4881 22.3084 59.2647 22.6281 59.8383 23.2017C60.4068 23.7702 60.7266 24.5469 60.7266 25.3539Z" fill="#191919"/>
<path fill-rule="evenodd" clip-rule="evenodd" d="M55.5035 24.8965H52.1758C51.6157 24.8965 51.1599 24.4419 51.1599 23.8818C51.1599 23.3211 51.6157 22.8665 52.1758 22.8665H55.5035C56.6237 22.8665 57.5352 23.7752 57.5352 24.8965C57.5352 28.0331 57.5352 37.3587 57.5352 37.3587C57.5352 37.9188 57.0793 38.374 56.5192 38.374C55.9591 38.374 55.5035 37.9188 55.5035 37.3587V24.8965Z" fill="#9E9E9E"/>
<path fill-rule="evenodd" clip-rule="evenodd" d="M51.2691 29.139C49.9842 29.139 47.9414 29.139 47.9414 29.139C47.3813 29.139 46.9255 28.6843 46.9255 28.1242C46.9255 27.5636 47.3813 27.1089 47.9414 27.1089H51.2691C51.8072 27.1089 52.3233 27.3225 52.7022 27.7036C53.0866 28.0841 53.3008 28.6008 53.3008 29.139C53.3008 31.5386 53.3008 37.3587 53.3008 37.3587C53.3008 37.9188 52.845 38.3734 52.2849 38.3734C51.7248 38.3734 51.2691 37.9188 51.2691 37.3587V29.139Z" fill="#9E9E9E"/>
<path fill-rule="evenodd" clip-rule="evenodd" d="M47.0386 33.9854C46.1765 33.9854 45.0782 33.9854 45.0782 33.9854C44.5181 33.9854 44.0623 33.5307 44.0623 32.9706C44.0623 32.41 44.5181 31.9553 45.0782 31.9553C45.0782 31.9553 46.1765 31.9553 47.0386 31.9553C47.5767 31.9553 48.0928 32.1689 48.4717 32.55C48.8561 32.9305 49.0703 33.4473 49.0703 33.9854C49.0703 35.2819 49.0703 37.3586 49.0703 37.3586C49.0703 37.9187 48.6145 38.3734 48.0544 38.3734C47.4943 38.3734 47.0386 37.9187 47.0386 37.3586V33.9854Z" fill="#9E9E9E"/>
<path fill-rule="evenodd" clip-rule="evenodd" d="M56.4171 38.3681V26.0037C56.4171 24.8819 55.5085 23.9733 54.3867 23.9733H51.1534C51.1534 23.9429 51.1484 23.9121 51.1484 23.8816C51.1484 23.3182 51.6052 22.8665 52.1636 22.8665H55.4931C56.6149 22.8665 57.5234 23.775 57.5234 24.8968C57.5234 28.0286 57.5234 37.3584 57.5234 37.3584C57.5234 37.9167 57.0717 38.3736 56.5083 38.3736C56.4778 38.3736 56.4475 38.3681 56.4171 38.3681Z" fill="#B6B6B6"/>
<path fill-rule="evenodd" clip-rule="evenodd" d="M52.1853 38.3682V30.2469C52.1853 29.7089 51.9719 29.1911 51.5912 28.8104C51.2105 28.4297 50.6981 28.2166 50.155 28.2166H46.9265C46.9215 28.1861 46.9216 28.1559 46.9216 28.1204C46.9216 27.5621 47.3733 27.1052 47.9368 27.1052H51.2665C51.8046 27.1052 52.3221 27.3233 52.7028 27.704C53.0835 28.0847 53.2969 28.5975 53.2969 29.1356C53.2969 31.5364 53.2969 37.3585 53.2969 37.3585C53.2969 37.9169 52.84 38.3737 52.2817 38.3737C52.2513 38.3737 52.2208 38.3682 52.1853 38.3682Z" fill="#B6B6B6"/>
<path fill-rule="evenodd" clip-rule="evenodd" d="M47.9561 38.3683V35.0948C47.9561 34.5568 47.743 34.039 47.3623 33.6583C46.9816 33.2776 46.4638 33.0645 45.9258 33.0645H44.063C44.0579 33.034 44.0578 32.9983 44.0578 32.9678C44.0578 32.4095 44.5095 31.9526 45.073 31.9526C45.073 31.9526 46.1693 31.9526 47.0322 31.9526C47.5702 31.9526 48.088 32.1658 48.4687 32.5465C48.8494 32.9272 49.0625 33.4449 49.0625 33.983C49.0625 35.2824 49.0625 37.3586 49.0625 37.3586C49.0625 37.917 48.6107 38.3738 48.0473 38.3738C48.0169 38.3738 47.9866 38.3683 47.9561 38.3683Z" fill="#B6B6B6"/>
<path fill-rule="evenodd" clip-rule="evenodd" d="M34.7271 23.8326C34.7271 23.2944 34.9413 22.7777 35.3202 22.3972C35.7046 22.0161 36.2208 21.8025 36.759 21.8025C36.8249 21.8025 36.8907 21.8025 36.9566 21.8025C37.4947 21.8025 38.0109 22.0161 38.3898 22.3972C38.7742 22.7777 38.9883 23.2944 38.9883 23.8326C38.9883 26.7824 38.9883 31.904 38.9883 31.904H34.7271V23.8326Z" fill="#F43131"/>
<path fill-rule="evenodd" clip-rule="evenodd" d="M36.855 21.8064H36.9462C37.4843 21.8064 38.002 22.0195 38.3827 22.4002C38.7634 22.7809 38.9766 23.2987 38.9766 23.8367C38.9766 26.7858 38.9766 31.9075 38.9766 31.9075H36.855V21.8064Z" fill="#F76565"/>
<path fill-rule="evenodd" clip-rule="evenodd" d="M37.875 31.9041V42.5261C37.875 43.0867 37.4192 43.5412 36.8591 43.5412C36.299 43.5412 35.8432 43.0867 35.8432 42.5261V31.9041C35.8432 31.344 36.299 30.8889 36.8591 30.8889C37.4192 30.8889 37.875 31.344 37.875 31.9041Z" fill="#B6B6B6"/>
<path fill-rule="evenodd" clip-rule="evenodd" d="M36.8559 30.8918C37.4143 30.8918 37.8711 31.3436 37.8711 31.907V42.5256C37.8711 43.0891 37.4143 43.5408 36.8559 43.5408V30.8918Z" fill="#C8C8C8"/>
<path fill-rule="evenodd" clip-rule="evenodd" d="M40.184 32.9222H33.5194C32.956 32.9222 32.5042 32.4654 32.5042 31.907C32.5042 31.3436 32.956 30.8918 33.5194 30.8918H40.184C40.7475 30.8918 41.1992 31.3436 41.1992 31.907C41.1992 32.4654 40.7475 32.9222 40.184 32.9222Z" fill="#F43131"/>
<path fill-rule="evenodd" clip-rule="evenodd" d="M41.207 31.907H32.507C32.507 31.3436 32.9638 30.8918 33.5221 30.8918H40.1919C40.7502 30.8918 41.207 31.3436 41.207 31.907Z" fill="#F76565"/>
<path fill-rule="evenodd" clip-rule="evenodd" d="M11.9139 38.8769C11.9139 38.5292 12.0122 38.205 12.192 37.9312C12.5024 37.4325 13.0579 37.1013 13.6951 37.1013C17.1755 37.1013 24.5938 37.1013 24.5938 37.1013V40.6533C24.5938 40.6533 17.1755 40.6533 13.6951 40.6533C12.7147 40.6533 11.9139 39.8584 11.9139 38.8777V38.8769Z" fill="#B6B6B6"/>
<path fill-rule="evenodd" clip-rule="evenodd" d="M11.9036 38.8813H24.5781V40.6524H13.6802C12.7005 40.6524 11.9036 39.861 11.9036 38.8813Z" fill="#888888"/>
<path fill-rule="evenodd" clip-rule="evenodd" d="M24.5837 37.0638C24.5837 36.0634 25.3965 35.2512 26.3958 35.2512H30.0199C31.0193 35.2512 31.832 36.0634 31.832 37.0638V40.6891C31.832 41.6896 31.0193 42.5017 30.0199 42.5017H26.3958C25.3965 42.5017 24.5837 41.6896 24.5837 40.6891V37.0638Z" fill="#B6B6B6"/>
<path fill-rule="evenodd" clip-rule="evenodd" d="M31.8281 38.3127V40.693C31.8281 41.693 31.0161 42.5053 30.0161 42.5053H26.3919C25.392 42.5053 24.5799 41.693 24.5799 40.693V38.3127C24.5799 39.3127 25.392 40.1245 26.3919 40.1245H30.0161C31.0161 40.1245 31.8281 39.3127 31.8281 38.3127Z" fill="#888888"/>
<path fill-rule="evenodd" clip-rule="evenodd" d="M29.176 37.912C29.5872 38.0389 29.8867 38.4247 29.8867 38.8816C29.8867 39.3333 29.5872 39.7188 29.176 39.8457C29.0441 40.2619 28.6583 40.5614 28.2066 40.5614C27.7498 40.5614 27.364 40.2619 27.2371 39.8457C26.826 39.7188 26.5264 39.3333 26.5264 38.8816C26.5264 38.4247 26.826 38.0389 27.2371 37.912C27.364 37.5008 27.7498 37.2012 28.2066 37.2012C28.6583 37.2012 29.0441 37.5008 29.176 37.912Z" fill="#767676"/>
<path fill-rule="evenodd" clip-rule="evenodd" d="M27.4315 22.3469C29.6161 22.3469 31.3867 24.1176 31.3867 26.2999C31.3867 28.4811 29.6161 30.2529 27.4315 30.2529C25.2469 30.2529 23.4763 28.4811 23.4763 26.2999C23.4763 24.1176 25.2469 22.3469 27.4315 22.3469ZM27.4315 24.3763C26.3737 24.3763 25.5111 25.2387 25.5111 26.2999C25.5111 27.3612 26.3737 28.2236 27.4315 28.2236C28.5008 28.2236 29.3631 27.3612 29.3631 26.2999C29.3631 25.2387 28.5008 24.3763 27.4315 24.3763Z" fill="#B6B6B6"/>
<path fill-rule="evenodd" clip-rule="evenodd" d="M19.3559 23.8948C21.1083 23.8948 22.5391 25.3196 22.5391 27.0737C22.5391 28.8278 21.1083 30.2526 19.3559 30.2526C17.6035 30.2526 16.1728 28.8278 16.1728 27.0737C16.1728 25.3196 17.6035 23.8948 19.3559 23.8948ZM19.3559 25.9257C18.721 25.9257 18.2045 26.4396 18.2045 27.0737C18.2045 27.7078 18.721 28.2216 19.3559 28.2216C19.9908 28.2216 20.5071 27.7078 20.5071 27.0737C20.5071 26.4396 19.9908 25.9257 19.3559 25.9257Z" fill="#B6B6B6"/>
<path fill-rule="evenodd" clip-rule="evenodd" d="M12.4548 24.6973C13.9929 24.6973 15.2344 25.9422 15.2344 27.4748C15.2344 29.0073 13.9929 30.2523 12.4548 30.2523C10.9236 30.2523 9.67518 29.0073 9.67518 27.4748C9.67518 25.9422 10.9236 24.6973 12.4548 24.6973ZM12.4548 26.7271C12.0409 26.7271 11.7029 27.0616 11.7029 27.4748C11.7029 27.8872 12.0409 28.2224 12.4548 28.2224C12.8686 28.2224 13.2065 27.8872 13.2065 27.4748C13.2065 27.0616 12.8686 26.7271 12.4548 26.7271Z" fill="#B6B6B6"/>
<path fill-rule="evenodd" clip-rule="evenodd" d="M23.5473 25.5671C23.8925 27.3995 25.5065 28.7851 27.4404 28.7851C29.3692 28.7851 30.9834 27.3995 31.3286 25.5671C31.3692 25.8057 31.3945 26.0494 31.3945 26.3032C31.3945 28.4858 29.623 30.2573 27.4404 30.2573C25.2527 30.2573 23.4811 28.4858 23.4811 26.3032C23.4811 26.0494 23.5067 25.8057 23.5473 25.5671Z" fill="#888888"/>
<path fill-rule="evenodd" clip-rule="evenodd" d="M22.5148 26.7043C22.5301 26.8262 22.5352 26.9528 22.5352 27.0746C22.5352 28.8309 21.1088 30.2574 19.3526 30.2574C17.5963 30.2574 16.1752 28.8309 16.1752 27.0746C16.1752 26.9528 16.1803 26.8262 16.1956 26.7043C16.3783 28.288 17.7232 29.5114 19.3526 29.5114C20.987 29.5114 22.327 28.288 22.5148 26.7043Z" fill="#888888"/>
<path fill-rule="evenodd" clip-rule="evenodd" d="M15.2143 27.1355C15.2245 27.2472 15.2344 27.3639 15.2344 27.4755C15.2344 29.0084 13.9857 30.2573 12.4528 30.2573C10.9199 30.2573 9.67127 29.0084 9.67127 27.4755C9.67127 27.3639 9.68157 27.2472 9.6968 27.1355C9.8643 28.506 11.0367 29.5718 12.4528 29.5718C13.869 29.5718 15.0417 28.506 15.2143 27.1355Z" fill="#888888"/>
<path fill-rule="evenodd" clip-rule="evenodd" d="M9.81704 45.8606H13.2383L8.84772 53.1695C8.84772 53.1695 8.84772 64.5038 8.84772 70.0923C8.84772 70.8994 9.1675 71.676 9.736 72.2495C10.3096 72.818 11.0862 73.1378 11.8932 73.1378H8.46704C7.65998 73.1378 6.88833 72.818 6.31476 72.2495C5.74626 71.676 5.42153 70.8994 5.42153 70.0923C5.42153 64.5038 5.42153 53.1695 5.42153 53.1695L9.81704 45.8606Z" fill="#191919"/>
<path fill-rule="evenodd" clip-rule="evenodd" d="M8.46854 18.5779C7.66148 18.5779 6.88983 18.8977 6.31626 19.4662C5.74777 20.0397 5.42303 20.8163 5.42303 21.6234C5.42303 27.2119 5.42303 38.5462 5.42303 38.5462L9.81855 45.8606H13.3516L8.96076 38.5462V21.6234C8.96076 20.8163 9.28066 20.0397 9.85424 19.4662C10.4227 18.8977 11.1992 18.5779 12.0063 18.5779H8.46854Z" fill="#191919"/>
<path fill-rule="evenodd" clip-rule="evenodd" d="M60.7266 69.7629V70.0926C60.7266 70.8996 60.4068 71.6762 59.8383 72.2498C59.2647 72.8183 58.4881 73.1381 57.6811 73.1381C48.0217 73.1381 18.1353 73.1381 8.47088 73.1381C7.66382 73.1381 6.89217 72.8183 6.3186 72.2498C5.75011 71.6762 5.42537 70.8996 5.42537 70.0926V69.7629H60.7266Z" fill="#191919"/>
<path fill-rule="evenodd" clip-rule="evenodd" d="M24.028 53.2611H17.6578C17.201 54.7686 15.8001 55.8602 14.1504 55.8501C13.1606 55.845 12.2673 55.4389 11.6125 54.7942C11.2166 54.3983 11.2115 53.7587 11.6074 53.3577C12.0033 52.9618 12.648 52.9569 13.0439 53.3528C13.3333 53.637 13.7241 53.8146 14.1657 53.8197C15.0489 53.8248 15.7747 53.1093 15.7798 52.2261C15.7848 51.3378 15.0692 50.6117 14.186 50.6067C13.7444 50.6016 13.3434 50.7791 13.049 51.0582C12.648 51.444 12.0033 51.4291 11.6176 51.023C11.2267 50.6221 11.242 49.9773 11.6481 49.5915C12.313 48.957 13.2114 48.5713 14.1962 48.5763C15.856 48.5865 17.2517 49.708 17.6781 51.2307H24.0128C24.4442 49.5608 25.9569 48.3224 27.7639 48.3072C28.8247 48.3021 29.7891 48.7185 30.4997 49.3987C30.9058 49.7844 30.921 50.4291 30.5353 50.8352C30.1495 51.2362 29.5048 51.2563 29.0988 50.8654C28.7536 50.5406 28.2917 50.3375 27.779 50.3375C26.7435 50.3477 25.9111 51.1906 25.9162 52.2261C25.9213 53.2565 26.7689 54.0936 27.8044 54.0834C28.312 54.0834 28.7739 53.8757 29.1089 53.5406C29.5048 53.1498 30.1495 53.1497 30.5454 53.5456C30.9414 53.9466 30.9363 54.5913 30.5404 54.9821C29.8399 55.6775 28.8805 56.1087 27.8146 56.1138C26.0177 56.129 24.4899 54.9158 24.028 53.2611Z" fill="#B6B6B6"/>
<path fill-rule="evenodd" clip-rule="evenodd" d="M27.1954 56.0731C28.0329 55.9411 28.7791 55.5506 29.3526 54.9821C29.7485 54.5913 29.7484 53.9466 29.3576 53.5456C29.317 53.5101 29.2764 53.4695 29.2307 53.439C29.6266 53.1497 30.1902 53.1852 30.5455 53.5456C30.9414 53.9466 30.9362 54.5913 30.5403 54.9821C29.8398 55.6775 28.8806 56.1087 27.8197 56.1138C27.6065 56.1188 27.3984 56.1036 27.1954 56.0731ZM16.4702 53.2611H17.6579C17.2061 54.7686 15.8051 55.8602 14.1504 55.8501C13.9575 55.8501 13.7645 55.8295 13.5818 55.799C14.9574 55.5757 16.0743 54.5757 16.4702 53.2611ZM27.1954 50.4342C26.4492 50.688 25.9161 51.3936 25.9212 52.2261C25.9263 53.0484 26.4594 53.7436 27.1954 53.9873C27.0127 54.0482 26.8198 54.0834 26.6117 54.0834C25.5813 54.0936 24.7337 53.2565 24.7286 52.2261C24.7235 51.1906 25.5559 50.3477 26.5914 50.3375C26.8046 50.3375 27.0076 50.3733 27.1954 50.4342ZM13.5818 53.7027C13.394 53.7789 13.1911 53.8197 12.9729 53.8197C12.5363 53.8146 12.1454 53.637 11.8561 53.3528C11.8155 53.3173 11.775 53.2816 11.7344 53.2512C12.1303 52.9618 12.6887 52.9975 13.044 53.3528C13.1963 53.5051 13.3788 53.6266 13.5818 53.7027ZM13.5818 50.7182C13.3839 50.7994 13.2064 50.9161 13.0541 51.0582C12.6938 51.4034 12.1455 51.4291 11.7547 51.1499C11.7953 51.1195 11.8308 51.0938 11.8613 51.0582C12.1557 50.7791 12.5565 50.6016 12.9981 50.6067C13.2012 50.6067 13.3991 50.6471 13.5818 50.7182ZM17.6782 51.2307H16.4905C16.1098 49.8856 14.9827 48.8553 13.5818 48.6269C13.7798 48.5914 13.988 48.5763 14.2012 48.5763C15.861 48.5865 17.2518 49.708 17.6782 51.2307ZM29.2054 50.9571C29.2562 50.9216 29.3017 50.8809 29.3474 50.8352C29.7332 50.4291 29.718 49.7844 29.312 49.3987C28.7435 48.8556 28.0126 48.4797 27.1954 48.3528C27.3832 48.3274 27.5709 48.3123 27.7689 48.3072C28.8247 48.3021 29.7892 48.7185 30.5048 49.3987C30.9058 49.7844 30.9262 50.4291 30.5353 50.8352C30.18 51.2057 29.6115 51.2515 29.2054 50.9571Z" fill="#DBDBDB"/>
<path fill-rule="evenodd" clip-rule="evenodd" d="M21.2988 61.4697H16.8575C16.4362 62.6168 15.3296 63.4288 14.0353 63.4187C13.2231 63.4136 12.4871 63.0837 11.949 62.5507C11.5531 62.1599 11.5531 61.5151 11.944 61.1192C12.3399 60.7182 12.9846 60.7184 13.3805 61.1093C13.553 61.2819 13.7916 61.3884 14.0505 61.3884C14.5784 61.3934 15.0098 60.9671 15.0149 60.4342C15.02 59.9063 14.5936 59.4746 14.0658 59.4695C13.8018 59.4695 13.5581 59.5711 13.3856 59.7437C12.9795 60.1294 12.3348 60.114 11.949 59.708C11.5633 59.3019 11.5785 58.6623 11.9846 58.2715C12.5277 57.7537 13.2637 57.4341 14.0758 57.4392C15.3701 57.4494 16.4716 58.282 16.8777 59.4393H21.2785C21.6947 58.1704 22.8825 57.2465 24.2935 57.2414C25.1564 57.2313 25.9431 57.5714 26.5269 58.1297C26.9329 58.5155 26.9482 59.1598 26.5624 59.5608C26.1767 59.9668 25.532 59.9822 25.1259 59.5964C24.9127 59.3934 24.6235 59.2667 24.3037 59.2718C23.6641 59.2718 23.1464 59.7996 23.1515 60.4391C23.1565 61.0787 23.6794 61.5962 24.3189 61.5911C24.6336 61.586 24.9229 61.4592 25.131 61.2511C25.5269 60.8602 26.1716 60.8605 26.5675 61.2615C26.9583 61.6574 26.9583 62.3017 26.5573 62.6925C25.9889 63.261 25.2022 63.6164 24.3342 63.6214C22.9282 63.6316 21.7303 62.7285 21.2988 61.4697Z" fill="#B6B6B6"/>
<path fill-rule="evenodd" clip-rule="evenodd" d="M20.0565 68.6155H16.5745C16.1685 69.58 15.2091 70.2504 14.1025 70.2454C13.3767 70.2403 12.7169 69.9458 12.2397 69.4686C11.8438 69.0778 11.8387 68.433 12.2347 68.0371C12.6306 67.6361 13.2702 67.6363 13.6712 68.0272C13.7828 68.1439 13.9401 68.215 14.1127 68.215C14.4629 68.215 14.7523 67.9359 14.7523 67.5806C14.7573 67.2303 14.4731 66.9457 14.1229 66.9406C13.9452 66.9406 13.7879 67.0119 13.6712 67.1235C13.2651 67.5093 12.6204 67.4939 12.2347 67.0878C11.8489 66.6818 11.8642 66.0422 12.2702 65.6513C12.7524 65.1894 13.4123 64.9052 14.1381 64.9103C15.2497 64.9204 16.1989 65.6106 16.5949 66.5852H20.0412C20.4422 65.5142 21.4677 64.7529 22.6757 64.7427C23.4472 64.7377 24.1477 65.0426 24.6603 65.5299C25.0664 65.9207 25.0816 66.5598 24.6959 66.9659C24.3101 67.372 23.6654 67.3874 23.2594 67.0016C23.1122 66.8595 22.9143 66.7731 22.691 66.7731C22.2494 66.7782 21.8889 67.1388 21.8889 67.5855C21.894 68.0271 22.2594 68.3872 22.701 68.3821C22.9192 68.3821 23.1173 68.2907 23.2645 68.1486C23.6604 67.7527 24.305 67.7581 24.6959 68.1541C25.0918 68.55 25.0918 69.1947 24.6908 69.5906C24.1832 70.0931 23.4878 70.4073 22.7162 70.4124C21.5082 70.4226 20.4727 69.6713 20.0565 68.6155Z" fill="#B6B6B6"/>
<path fill-rule="evenodd" clip-rule="evenodd" d="M23.8696 63.5912C24.565 63.4948 25.1945 63.1696 25.6717 62.6925C26.0676 62.3017 26.0725 61.6574 25.6766 61.2615C25.5954 61.1752 25.499 61.1089 25.4025 61.0632C25.7781 60.8754 26.2502 60.9417 26.5649 61.2615C26.9608 61.6574 26.9559 62.3017 26.5599 62.6925C25.9864 63.261 25.1996 63.6164 24.3316 63.6214C24.1742 63.6214 24.0219 63.6115 23.8696 63.5912ZM15.9718 61.4697H16.8601C16.4337 62.6168 15.3271 63.4288 14.0379 63.4187C13.8958 63.4187 13.7535 63.4083 13.6113 63.388C14.7026 63.2255 15.5962 62.4747 15.9718 61.4697ZM23.8696 59.358C23.4432 59.5306 23.149 59.9518 23.1541 60.4391C23.1541 60.9162 23.4483 61.3273 23.8696 61.4999C23.7326 61.5557 23.5854 61.5911 23.4331 61.5911C22.7936 61.5962 22.2709 61.0787 22.2658 60.4391C22.2607 59.7996 22.7785 59.2718 23.418 59.2718C23.5754 59.2667 23.7275 59.3022 23.8696 59.358ZM13.6113 61.2818C13.4794 61.3528 13.3271 61.3884 13.1647 61.3884C12.9008 61.3884 12.6674 61.2819 12.4948 61.1093C12.4136 61.0281 12.3222 60.9667 12.2207 60.916C12.6014 60.7332 13.0684 60.7997 13.3831 61.1093C13.4491 61.1803 13.525 61.2361 13.6113 61.2818ZM13.6113 59.5811C13.5301 59.6217 13.4491 59.6777 13.3831 59.7437C13.0684 60.0431 12.6115 60.0988 12.241 59.9211C12.3324 59.8754 12.4187 59.8147 12.4948 59.7437C12.6725 59.5711 12.9109 59.4695 13.1749 59.4695C13.3322 59.4695 13.4794 59.51 13.6113 59.5811ZM25.3822 59.7739C25.4888 59.7231 25.5854 59.6521 25.6717 59.5608C26.0625 59.1598 26.0422 58.5155 25.6412 58.1297C25.1641 57.6729 24.5498 57.363 23.8696 57.2717C24.0066 57.2514 24.1488 57.2414 24.2909 57.2414C25.1589 57.2313 25.9456 57.5714 26.5243 58.1297C26.9303 58.5155 26.9457 59.1598 26.5599 59.5608C26.2503 59.8907 25.768 59.9617 25.3822 59.7739ZM16.8802 59.4393H15.9919C15.6315 58.414 14.7229 57.6373 13.6113 57.4749C13.7636 57.4495 13.9212 57.4392 14.0785 57.4392C15.3729 57.4494 16.469 58.282 16.8802 59.4393Z" fill="#DBDBDB"/>
<path fill-rule="evenodd" clip-rule="evenodd" d="M22.2856 70.3822C22.8998 70.2908 23.4478 70.0068 23.8691 69.5906C24.265 69.1947 24.2702 68.55 23.8743 68.1541C23.783 68.0627 23.6764 67.9917 23.5648 67.9409C23.9404 67.7734 24.3971 67.8444 24.7016 68.1541C25.0975 68.55 25.0926 69.1947 24.6967 69.5906C24.1891 70.0931 23.4884 70.4073 22.7169 70.4124C22.5697 70.4124 22.4278 70.4025 22.2856 70.3822ZM15.753 68.6155H16.5803C16.1691 69.58 15.2149 70.2504 14.1033 70.2454C13.9663 70.2454 13.8342 70.2299 13.7073 70.2146C14.6311 70.0674 15.3977 69.448 15.753 68.6155ZM22.2856 66.8851C22.0522 67.0272 21.8948 67.286 21.8948 67.5855C21.8948 67.8748 22.0522 68.1285 22.2856 68.2656C22.1689 68.3417 22.0266 68.3821 21.8794 68.3821C21.4327 68.3872 21.0723 68.0271 21.0672 67.5855C21.0672 67.1388 21.4226 66.7782 21.8693 66.7731C22.0215 66.7731 22.1638 66.814 22.2856 66.8851ZM13.7073 68.0624C13.5956 68.1588 13.4485 68.215 13.2911 68.215C13.1186 68.215 12.9613 68.1439 12.8445 68.0272C12.7582 67.9409 12.6568 67.8696 12.5451 67.8239C12.9157 67.6564 13.3673 67.7277 13.6718 68.0272C13.687 68.0424 13.6971 68.0522 13.7073 68.0624ZM13.7073 67.0928C13.692 67.1029 13.682 67.1134 13.6718 67.1235C13.3673 67.4179 12.9257 67.4788 12.5602 67.3164C12.6618 67.2707 12.7582 67.2047 12.8445 67.1235C12.9663 67.0119 13.1238 66.9406 13.2963 66.9406C13.4537 66.9406 13.5956 67.0014 13.7073 67.0928ZM23.5494 67.1944C23.6712 67.1437 23.7779 67.0674 23.8743 66.9659C24.2601 66.5598 24.2449 65.9207 23.8389 65.5299C23.4227 65.134 22.8846 64.8598 22.2856 64.7735C22.4125 64.7532 22.5444 64.7427 22.6814 64.7427C23.4479 64.7377 24.1484 65.0426 24.6662 65.5299C25.0722 65.9207 25.0874 66.5598 24.7016 66.9659C24.3971 67.2857 23.9352 67.3619 23.5494 67.1944ZM16.5956 66.5852H15.7681C15.4229 65.7274 14.6463 65.0882 13.7073 64.941C13.8494 64.9207 13.9916 64.9103 14.1388 64.9103C15.2554 64.9204 16.2048 65.6106 16.5956 66.5852Z" fill="#DBDBDB"/>
<path fill-rule="evenodd" clip-rule="evenodd" d="M35.8041 54.2823C35.8041 54.2823 38.7156 56.3966 41.517 54.5062C43.1341 53.4164 43.73 52.6033 44.2994 52.0742C45.051 51.3731 45.7381 50.9821 47.693 51.0162C48.2548 51.0257 48.6989 51.4884 48.6913 52.0487C48.6799 52.609 48.2168 53.0558 47.6588 53.0459C46.9414 53.0338 46.4935 53.0744 46.1556 53.2232C45.8406 53.3629 45.6356 53.5971 45.3509 53.889C44.8004 54.4573 44.0869 55.2225 42.652 56.1893C38.7156 58.8461 34.6197 55.932 34.6197 55.932C34.1642 55.6052 34.058 54.9705 34.3844 54.5153C34.7109 54.0598 35.3486 53.9554 35.8041 54.2823Z" fill="#B6B6B6"/>
<path fill-rule="evenodd" clip-rule="evenodd" d="M48.5504 51.5249C48.6418 51.6772 48.6875 51.855 48.6875 52.0479C48.6773 52.6062 48.2154 53.0529 47.652 53.0427C46.9363 53.0325 46.4898 53.0735 46.1548 53.2207C45.835 53.3628 45.6318 53.596 45.3476 53.8854C44.7994 54.4539 44.0838 55.2203 42.6473 56.1898C38.7084 58.8445 34.6174 55.9311 34.6174 55.9311C34.191 55.6214 34.069 55.0478 34.3279 54.6011C34.399 54.723 34.4956 54.8296 34.6174 54.9159C34.6174 54.9159 38.7084 57.8344 42.6473 55.1747C44.0838 54.2102 44.7994 53.4437 45.3476 52.8752C45.6318 52.5808 45.835 52.3475 46.1548 52.2104C46.4898 52.0582 46.9363 52.0173 47.652 52.0325C48.0378 52.0376 48.3728 51.8345 48.5504 51.5249Z" fill="#767676"/>
<path fill-rule="evenodd" clip-rule="evenodd" d="M34.6172 50.713C34.6172 50.713 38.7083 47.7995 42.6471 50.4542C44.0836 51.4237 44.7992 52.1902 45.3474 52.7587C45.6316 53.048 45.8348 53.2813 46.1546 53.4234C46.4896 53.5706 46.9361 53.6115 47.6518 53.6013C48.2153 53.5912 48.6772 54.0378 48.6873 54.5962C48.6975 55.1596 48.2509 55.6215 47.6875 55.6317C45.7333 55.6621 45.0481 55.2709 44.2918 54.5704C43.7284 54.0425 43.1293 53.2304 41.5152 52.139C38.7134 50.2508 35.7999 52.3626 35.7999 52.3626C35.3431 52.6925 34.7086 52.586 34.3838 52.1291C34.0538 51.6774 34.1604 51.0429 34.6172 50.713Z" fill="#B6B6B6"/>
<path fill-rule="evenodd" clip-rule="evenodd" d="M48.5708 55.0834C48.3982 54.7535 48.053 54.53 47.652 54.5402C46.9363 54.5503 46.4898 54.5099 46.1548 54.3627C45.835 54.2206 45.6318 53.9868 45.3476 53.6975C44.7994 53.129 44.0838 52.3625 42.6473 51.393C38.7084 48.7384 34.6174 51.6518 34.6174 51.6518C34.4803 51.7482 34.3787 51.8701 34.3076 52.0072C34.0741 51.5656 34.2012 51.0124 34.6174 50.713C34.6174 50.713 38.7084 47.7995 42.6473 50.4542C44.0838 51.4237 44.7994 52.1902 45.3476 52.7587C45.6318 53.048 45.835 53.2813 46.1548 53.4234C46.4898 53.5706 46.9363 53.6115 47.652 53.6013C48.2154 53.5912 48.6773 54.0378 48.6875 54.5962C48.6875 54.7738 48.6469 54.9362 48.5708 55.0834Z" fill="#DBDBDB"/>
<path d="M32.842 61.9011H50.6484V65.9937H32.842V61.9011Z" fill="#F7D070"/>
<path d="M32.842 63.9832H50.6484V65.995H32.842V63.9832Z" fill="#B99C54"/>
<path fill-rule="evenodd" clip-rule="evenodd" d="M50.6496 58.5767H53.1176C54.9936 58.5767 56.5156 60.099 56.5156 61.9761C56.5156 65.1246 56.5156 69.3227 56.5156 69.3227H50.6496V58.5767Z" fill="#9E9E9E"/>
<path fill-rule="evenodd" clip-rule="evenodd" d="M50.6479 60.9057V58.5759H53.1147C54.9928 58.5759 56.5156 60.0933 56.5156 61.9714V69.3215H54.1859V64.3066C54.1859 62.4285 52.663 60.9057 50.785 60.9057H50.6479Z" fill="#B6B6B6"/>
<path fill-rule="evenodd" clip-rule="evenodd" d="M11.706 44.8445H55.1794C55.7395 44.8445 56.1953 45.2991 56.1953 45.8598C56.1953 46.4199 55.7395 46.8746 55.1794 46.8746H11.706C11.1459 46.8746 10.6901 46.4199 10.6901 45.8598C10.6901 45.2991 11.1459 44.8445 11.706 44.8445Z" fill="#191919"/>
</g>
</g>
<defs>
<clipPath id="clip0_6511_695">
<rect y="0.719971" width="80" height="80" rx="10" fill="white"/>
</clipPath>
<clipPath id="clip1_6511_695">
<rect width="80" height="80" fill="white" transform="translate(0 0.719971)"/>
</clipPath>
</defs>
</svg>
