<svg width="116" height="88" viewBox="0 0 116 88" fill="none" xmlns="http://www.w3.org/2000/svg">
<g clip-path="url(#clip0_6511_708)">
<g clip-path="url(#clip1_6511_708)">
<path d="M89.8528 35.6822V26.9725H95.6593V24.0693H92.7561V11.0048C92.7561 5.40302 88.1965 0.843506 82.5948 0.843506C76.993 0.843506 72.4335 5.40302 72.4335 11.0048V24.0693H69.5302V26.9725H75.3367V35.6822H37.5948V26.9725H40.498V0.843506H14.369V26.9725H17.2722V35.6822H8.5625V90.8435H98.5625V35.6822H89.8528ZM75.3367 11.0048C75.3367 7.0027 78.5927 3.74673 82.5948 3.74673C86.5969 3.74673 89.8528 7.0027 89.8528 11.0048V24.0693H86.9496V11.0048H78.2399V13.908H84.0464V24.0693H81.1432V16.8112H78.2399V24.0693H75.3367V11.0048ZM86.9496 26.9725V35.6822H78.2399V26.9725H86.9496ZM17.2722 3.74673H37.5948V24.0693H17.2722V3.74673ZM34.6915 26.9725V35.6822H20.1754V26.9725H34.6915ZM95.6593 87.9403H11.4657V38.5854H17.2722V53.1016H20.1754V38.5854H34.6915V53.1016H37.5948V38.5854H75.3367V58.908H78.2399V38.5854H86.9496V58.908H89.8528V38.5854H95.6593V87.9403Z" fill="#3F51B5"/>
<path d="M43.3993 44.3918H40.4961V47.2951H43.3993V44.3918Z" fill="#3F51B5"/>
<path d="M66.6259 44.3918H63.7227V47.2951H66.6259V44.3918Z" fill="#3F51B5"/>
<path d="M63.7219 53.1015H60.8187V50.1982H57.9154V53.1015H55.0122V50.1982H52.109V53.1015H49.2058V50.1982H46.3025V53.1015H43.3993V50.1982H40.4961V53.1015V73.424V76.3273H43.3993V73.424H46.3025V76.3273H49.2058V73.424H52.109V76.3273H55.0122V73.424H57.9154V76.3273H60.8187V73.424H63.7219V76.3273H66.6251V73.424V53.1015V50.1982H63.7219V53.1015ZM63.7219 70.5208H43.3993V56.0047H63.7219V70.5208Z" fill="#3F51B5"/>
<path d="M37.5946 56.0049H34.6914V58.9081H37.5946V56.0049Z" fill="#3F51B5"/>
<path d="M31.7899 44.3918H28.8867V47.2951H31.7899V44.3918Z" fill="#3F51B5"/>
<path d="M31.7899 50.1982H28.8867V53.1015H31.7899V50.1982Z" fill="#3F51B5"/>
<path d="M31.7899 56.0049H28.8867V58.9081H31.7899V56.0049Z" fill="#3F51B5"/>
<path d="M25.9814 44.3918H23.0781V47.2951H25.9814V44.3918Z" fill="#3F51B5"/>
<path d="M25.9814 50.1982H23.0781V53.1015H25.9814V50.1982Z" fill="#3F51B5"/>
<path d="M25.9814 56.0049H23.0781V58.9081H25.9814V56.0049Z" fill="#3F51B5"/>
<path d="M20.1767 56.0049H17.2734V58.9081H20.1767V56.0049Z" fill="#3F51B5"/>
<path d="M72.4345 44.3918H69.5312V47.2951H72.4345V44.3918Z" fill="#3F51B5"/>
<path d="M84.0478 44.3918H81.1445V47.2951H84.0478V44.3918Z" fill="#3F51B5"/>
<path d="M72.4345 50.1982H69.5312V53.1015H72.4345V50.1982Z" fill="#3F51B5"/>
<path d="M49.2079 44.3918H46.3047V47.2951H49.2079V44.3918Z" fill="#3F51B5"/>
<path d="M55.0126 44.3918H52.1094V47.2951H55.0126V44.3918Z" fill="#3F51B5"/>
<path d="M60.8212 44.3918H57.918V47.2951H60.8212V44.3918Z" fill="#3F51B5"/>
<path d="M84.0478 50.1982H81.1445V53.1015H84.0478V50.1982Z" fill="#3F51B5"/>
<path d="M72.4345 56.0049H69.5312V58.9081H72.4345V56.0049Z" fill="#3F51B5"/>
<path d="M84.0478 56.0049H81.1445V58.9081H84.0478V56.0049Z" fill="#3F51B5"/>
<path d="M20.1767 61.8113H17.2734V64.7145H20.1767V61.8113Z" fill="#3F51B5"/>
<path d="M25.9814 61.8113H23.0781V64.7145H25.9814V61.8113Z" fill="#3F51B5"/>
<path d="M31.7899 61.8113H28.8867V64.7145H31.7899V61.8113Z" fill="#3F51B5"/>
<path d="M37.5946 61.8113H34.6914V64.7145H37.5946V61.8113Z" fill="#3F51B5"/>
<path d="M72.4345 61.8113H69.5312V64.7145H72.4345V61.8113Z" fill="#3F51B5"/>
<path d="M78.2392 61.8113H75.3359V64.7145H78.2392V61.8113Z" fill="#3F51B5"/>
<path d="M84.0478 61.8113H81.1445V64.7145H84.0478V61.8113Z" fill="#3F51B5"/>
<path d="M89.8524 61.8113H86.9492V64.7145H89.8524V61.8113Z" fill="#3F51B5"/>
<path d="M20.1767 67.6177H17.2734V70.5209H20.1767V67.6177Z" fill="#3F51B5"/>
<path d="M25.9814 67.6177H23.0781V70.5209H25.9814V67.6177Z" fill="#3F51B5"/>
<path d="M31.7899 67.6177H28.8867V70.5209H31.7899V67.6177Z" fill="#3F51B5"/>
<path d="M37.5946 67.6177H34.6914V70.5209H37.5946V67.6177Z" fill="#3F51B5"/>
<path d="M72.4345 67.6177H69.5312V70.5209H72.4345V67.6177Z" fill="#3F51B5"/>
<path d="M78.2392 67.6177H75.3359V70.5209H78.2392V67.6177Z" fill="#3F51B5"/>
<path d="M84.0478 67.6177H81.1445V70.5209H84.0478V67.6177Z" fill="#3F51B5"/>
<path d="M89.8524 67.6177H86.9492V70.5209H89.8524V67.6177Z" fill="#3F51B5"/>
<path d="M20.1767 73.4241H17.2734V76.3273H20.1767V73.4241Z" fill="#3F51B5"/>
<path d="M25.9814 73.4241H23.0781V76.3273H25.9814V73.4241Z" fill="#3F51B5"/>
<path d="M31.7899 73.4241H28.8867V76.3273H31.7899V73.4241Z" fill="#3F51B5"/>
<path d="M37.5946 73.4241H34.6914V76.3273H37.5946V73.4241Z" fill="#3F51B5"/>
<path d="M72.4345 73.4241H69.5312V76.3273H72.4345V73.4241Z" fill="#3F51B5"/>
<path d="M78.2392 73.4241H75.3359V76.3273H78.2392V73.4241Z" fill="#3F51B5"/>
<path d="M84.0478 73.4241H81.1445V76.3273H84.0478V73.4241Z" fill="#3F51B5"/>
<path d="M89.8524 73.4241H86.9492V76.3273H89.8524V73.4241Z" fill="#3F51B5"/>
<path d="M20.1767 79.2307H17.2734V82.1339H20.1767V79.2307Z" fill="#3F51B5"/>
<path d="M25.9814 79.2307H23.0781V82.1339H25.9814V79.2307Z" fill="#3F51B5"/>
<path d="M31.7899 79.2307H28.8867V82.1339H31.7899V79.2307Z" fill="#3F51B5"/>
<path d="M37.5946 79.2307H34.6914V82.1339H37.5946V79.2307Z" fill="#3F51B5"/>
<path d="M43.3993 79.2307H40.4961V82.1339H43.3993V79.2307Z" fill="#3F51B5"/>
<path d="M49.2079 79.2307H46.3047V82.1339H49.2079V79.2307Z" fill="#3F51B5"/>
<path d="M55.0126 79.2307H52.1094V82.1339H55.0126V79.2307Z" fill="#3F51B5"/>
<path d="M60.8212 79.2307H57.918V82.1339H60.8212V79.2307Z" fill="#3F51B5"/>
<path d="M66.6259 79.2307H63.7227V82.1339H66.6259V79.2307Z" fill="#3F51B5"/>
<path d="M72.4345 79.2307H69.5312V82.1339H72.4345V79.2307Z" fill="#3F51B5"/>
<path d="M78.2392 79.2307H75.3359V82.1339H78.2392V79.2307Z" fill="#3F51B5"/>
<path d="M84.0478 79.2307H81.1445V82.1339H84.0478V79.2307Z" fill="#3F51B5"/>
<path d="M89.8524 79.2307H86.9492V82.1339H89.8524V79.2307Z" fill="#3F51B5"/>
<path d="M27.4338 6.6499C23.4317 6.6499 20.1758 9.90587 20.1758 13.908C20.1758 17.9101 23.4317 21.166 27.4338 21.166C31.4359 21.166 34.6919 17.9101 34.6919 13.908C34.6919 9.90587 31.4359 6.6499 27.4338 6.6499ZM27.4338 18.2628C25.5438 18.2628 23.9471 17.0449 23.3461 15.3596H31.5201C30.9206 17.0449 29.3238 18.2628 27.4338 18.2628ZM23.3476 12.4564C23.9471 10.771 25.5438 9.55313 27.4338 9.55313C29.3238 9.55313 30.9206 10.771 31.5216 12.4564H23.3476Z" fill="#3F51B5"/>
<path d="M49.2079 58.908H46.3047V61.8112H49.2079V58.908Z" fill="#3F51B5"/>
<path d="M60.8191 58.908H52.1094V61.8112H60.8191V58.908Z" fill="#3F51B5"/>
<path d="M60.8208 64.7144H46.3047V67.6176H60.8208V64.7144Z" fill="#3F51B5"/>
</g>
</g>
<defs>
<clipPath id="clip0_6511_708">
<rect width="116" height="87" fill="white" transform="translate(0 0.719971)"/>
</clipPath>
<clipPath id="clip1_6511_708">
<rect width="90" height="90" fill="white" transform="translate(8.5625 0.843506)"/>
</clipPath>
</defs>
</svg>
