<svg width="65" height="65" viewBox="0 0 65 65" fill="none" xmlns="http://www.w3.org/2000/svg">
<g clip-path="url(#clip0_8722_579)">
<path d="M42.1591 52.0435V48.8435H46.4258V52.0435C46.4258 58.5501 41.1991 63.7768 34.6924 63.7768H21.8925C15.3858 63.7768 10.1591 58.5501 10.1591 52.0435V1.91016H14.4258V52.0435C14.4258 56.2034 17.7325 59.5101 21.8925 59.5101H34.6924C38.8524 59.5101 42.1591 56.2035 42.1591 52.0435Z" fill="#3F51B5" stroke="black" stroke-width="1.58854"/>
<path d="M34.6943 42.4436H53.8943C54.5343 42.4436 54.9609 42.0169 54.9609 41.377V18.977C54.9609 18.337 54.5343 17.9104 53.8943 17.9104H34.6943C34.0543 17.9104 33.6277 18.337 33.6277 18.977V41.377C33.6276 42.0169 34.0543 42.4436 34.6943 42.4436Z" fill="#3F51B5" stroke="black" stroke-width="1.58854"/>
<path d="M34.6946 17.9102H37.8945C37.2545 17.9102 36.8279 18.3368 36.8279 18.9768V41.3767C36.8279 42.0167 37.2545 42.4433 37.8945 42.4433H34.6946C34.0546 42.4433 33.628 42.0167 33.628 41.3767V18.9769C33.6278 18.4435 34.0546 17.9102 34.6946 17.9102Z" fill="white" stroke="black" stroke-width="1.58854"/>
<path d="M53.8943 17.9102H50.6944C51.3344 17.9102 51.761 18.3368 51.761 18.9768V41.3767C51.761 42.0167 51.3344 42.4433 50.6944 42.4433H53.8943C54.5343 42.4433 54.9609 42.0167 54.9609 41.3767V18.9769C54.9609 18.4435 54.5343 17.9102 53.8943 17.9102Z" fill="white" stroke="black" stroke-width="1.58854"/>
<path d="M41.0959 48.8435H47.4959C48.1359 48.8435 48.5625 48.4169 48.5625 47.7769V42.4436H40.0291V47.7769C40.0292 48.4169 40.4559 48.8435 41.0959 48.8435Z" fill="#3F51B5" stroke="black" stroke-width="1.58854"/>
<path d="M42.16 42.4434V47.7767C42.16 48.4167 42.5866 48.8433 43.2266 48.8433H41.0932C40.4532 48.8433 40.0266 48.4167 40.0266 47.7767V42.4434H42.16Z" fill="#3F51B5" stroke="black" stroke-width="1.58854"/>
<path d="M46.4292 42.4434V47.7767C46.4292 48.4167 46.0025 48.8433 45.3625 48.8433H47.4959C48.1359 48.8433 48.5625 48.4167 48.5625 47.7767V42.4434H46.4292Z" fill="white" stroke="black" stroke-width="1.58854"/>
<path d="M36.8284 17.9102H51.7617V4.0435C51.7617 2.87014 50.8017 1.91016 49.6284 1.91016H38.9618C37.7884 1.91016 36.8284 2.87014 36.8284 4.0435V17.9102Z" fill="#3F51B5" stroke="black" stroke-width="1.58854"/>
<path d="M48.5625 9.37684H40.0292V6.17676H48.5625V9.37684Z" fill="#FDF408" stroke="black" stroke-width="1.58854"/>
<path d="M36.8282 18.9769H51.7615C52.4015 18.9769 52.8281 18.5503 52.8281 17.9103V4.04346C52.8281 2.23011 51.4415 0.843506 49.6282 0.843506H38.9616C37.1482 0.843506 35.7616 2.23011 35.7616 4.04346V17.9101C35.7615 18.5501 36.1881 18.9769 36.8282 18.9769ZM50.6948 16.8435H37.8948V4.04346C37.8948 3.40347 38.3214 2.97685 38.9614 2.97685H49.628C50.268 2.97685 50.6947 3.51022 50.6947 4.04346L50.6948 16.8435Z" fill="black" stroke="black" stroke-width="1.58854"/>
<path d="M34.694 43.5101H53.894C55.0674 43.5101 56.0273 42.5502 56.0273 41.3768V18.9769C56.0273 17.8035 55.0674 16.8435 53.894 16.8435H34.694C33.5206 16.8435 32.5607 17.8035 32.5607 18.9769V41.3768C32.5607 42.5502 33.5206 43.5101 34.694 43.5101ZM53.894 18.9769V41.3768H34.694V18.9769H53.894Z" fill="black"/>
<path d="M34.694 41.3768V42.4434M34.694 41.3768H53.894V18.9769H34.694V41.3768ZM34.694 43.5101H53.894C55.0674 43.5101 56.0273 42.5502 56.0273 41.3768V18.9769C56.0273 17.8035 55.0674 16.8435 53.894 16.8435H34.694C33.5206 16.8435 32.5607 17.8035 32.5607 18.9769V41.3768C32.5607 42.5502 33.5206 43.5101 34.694 43.5101Z" stroke="black" stroke-width="1.58854"/>
<path d="M41.0955 49.91H47.4956C48.6689 49.91 49.6289 48.95 49.6289 47.7766V42.4433C49.6289 41.8033 49.2023 41.3767 48.5623 41.3767H40.0289C39.3889 41.3767 38.9623 41.8033 38.9623 42.4433V47.7766C38.9622 48.95 39.9222 49.91 41.0955 49.91ZM47.4956 43.5101V47.7768H41.0955V43.5101H47.4956Z" fill="black"/>
<path d="M41.0955 47.7766V48.8432M41.0955 49.91H47.4956C48.6689 49.91 49.6289 48.95 49.6289 47.7766V42.4433C49.6289 41.8033 49.2023 41.3767 48.5623 41.3767H40.0289C39.3889 41.3767 38.9623 41.8033 38.9623 42.4433V47.7766C38.9622 48.95 39.9222 49.91 41.0955 49.91ZM47.4956 43.5101V47.7768H41.0955V43.5101H47.4956Z" stroke="black" stroke-width="1.58854"/>
<path d="M40.0289 10.4435H48.5623C49.2023 10.4435 49.6289 10.0169 49.6289 9.37692V6.17696C49.6289 5.53697 49.2023 5.11035 48.5623 5.11035H40.0289C39.3889 5.11035 38.9623 5.53697 38.9623 6.17696V9.37692C38.9622 10.0169 39.3889 10.4435 40.0289 10.4435ZM47.4956 8.31018H41.0955V7.24357H47.4956V8.31018Z" fill="white" stroke="black" stroke-width="1.58854"/>
<path d="M34.6922 64.8435C41.7323 64.8435 47.4922 59.0835 47.4922 52.0436V48.8436C47.4922 48.2036 47.0656 47.777 46.4256 47.777H42.1589C41.5189 47.777 41.0923 48.2036 41.0923 48.8436V52.0436C41.0923 55.5635 38.2123 58.4436 34.6922 58.4436H21.8923C18.3723 58.4436 15.4923 55.5636 15.4923 52.0436V1.91012C15.4923 1.27012 15.0656 0.843506 14.4256 0.843506H10.1589C9.51896 0.843506 9.09233 1.27012 9.09233 1.91012V52.0434C9.09233 59.0835 14.8524 64.8434 21.8923 64.8434H34.6922V64.8435ZM45.3588 49.9101V52.0434C45.3588 57.9101 40.5589 62.71 34.6922 62.71H21.8923C16.0256 62.71 11.2257 57.9101 11.2257 52.0434V2.97685H13.359V52.0434C13.359 56.7367 17.199 60.5768 21.8924 60.5768H34.6922C39.3855 60.5768 43.2256 56.7369 43.2256 52.0434V49.9101H45.3588Z" fill="black" stroke="black" stroke-width="1.58854"/>
</g>
<defs>
<clipPath id="clip0_8722_579">
<rect width="64" height="64" fill="white" transform="matrix(-1 0 0 1 64.5625 0.843506)"/>
</clipPath>
</defs>
</svg>
