<svg width="80" height="81" viewBox="0 0 80 81" fill="none" xmlns="http://www.w3.org/2000/svg">
<g clip-path="url(#clip0_6511_736)">
<g clip-path="url(#clip1_6511_736)">
<path d="M32.0984 48.1354L35.7655 47.3229C35.8024 44.8545 36.331 42.4711 37.3355 40.238L34.4991 37.9412C33.8242 37.3945 33.7203 36.4042 34.2662 35.7285L37.8224 31.3361C38.0851 31.0113 38.4658 30.8052 38.8812 30.7611C39.2941 30.7163 39.7118 30.8414 40.0359 31.1033L42.7976 33.342C44.7531 31.8419 46.9485 30.7785 49.324 30.1806V26.674C49.324 25.8056 50.0287 25.1008 50.8971 25.1008H56.5472C57.4156 25.1008 58.1204 25.8056 58.1204 26.674V30.183C60.5431 30.7942 62.7786 31.8907 64.7648 33.4426L67.5532 31.2245C67.8797 30.9649 68.2926 30.8477 68.7111 30.8925C69.1256 30.9397 69.5048 31.1497 69.7643 31.4769L73.282 35.9C73.8232 36.5796 73.7099 37.5699 73.0303 38.1103L70.1655 40.3883C71.1488 42.6285 71.6561 45.0126 71.6726 47.4754L75.3429 48.3234C76.1892 48.52 76.717 49.3633 76.522 50.2096L75.2508 55.7166C75.055 56.5637 74.2086 57.0908 73.3638 56.8957L69.5779 56.0218C68.4539 58.1314 66.9476 59.9689 65.1014 61.4831L66.8083 65.0621C67.1828 65.8463 66.8508 66.7847 66.0666 67.1591L60.9663 69.5936C60.7531 69.6951 60.5211 69.7462 60.2891 69.7462C60.1113 69.7462 59.9343 69.7164 59.7636 69.6566C59.3703 69.5166 59.0486 69.2279 58.8685 68.8511L57.1395 65.2241C54.8403 65.667 52.4467 65.6599 50.1554 65.199L48.3966 68.8047C48.0159 69.5866 47.0712 69.9083 46.2924 69.5299L41.2142 67.0537C40.4339 66.673 40.109 65.7307 40.4897 64.9504L42.225 61.3918C40.3883 59.8611 38.8969 58.0087 37.7894 55.8865L34.0043 56.7258C33.1579 56.9122 32.3163 56.3789 32.1283 55.5294L30.9035 50.0122C30.8139 49.6048 30.8878 49.1776 31.1136 48.826C31.337 48.4736 31.6909 48.2251 32.0984 48.1354ZM46.7848 47.595C46.7848 51.4171 49.8942 54.5265 53.7171 54.5265C57.5383 54.5265 60.6477 51.4171 60.6477 47.595C60.6477 43.773 57.5391 40.6636 53.7171 40.6636C49.8942 40.6643 46.7848 43.773 46.7848 47.595Z" fill="#3F51B5"/>
<path d="M27.8377 34.6665C27.2509 34.6665 26.6869 34.3361 26.4163 33.7706L25.5873 32.0338C24.151 32.3114 22.6493 32.3051 21.2209 32.0172L20.3792 33.7438C19.9993 34.5241 19.0562 34.849 18.2751 34.4683L16.1584 33.4355C15.7832 33.2522 15.4961 32.9273 15.36 32.5332C15.2247 32.1392 15.2507 31.7065 15.4347 31.3313L16.263 29.6362C15.1162 28.6813 14.1817 27.5234 13.4887 26.1933L11.6968 26.5897C10.852 26.777 10.0088 26.2421 9.82003 25.3941L9.31189 23.0949C9.12468 22.247 9.65878 21.4069 10.5083 21.2189L12.2262 20.8382C12.2482 19.2949 12.5794 17.8043 13.2079 16.4081L11.8919 15.3423C11.5678 15.0795 11.361 14.6988 11.3185 14.2843C11.2744 13.8698 11.3987 13.4537 11.6614 13.1296L13.1434 11.2992C13.6916 10.6235 14.6827 10.5205 15.3561 11.0671L16.6256 12.0952C17.848 11.1568 19.2206 10.4921 20.7065 10.1185V8.51386C20.7065 7.64546 21.4113 6.94067 22.2796 6.94067H24.6347C25.5031 6.94067 26.2079 7.64546 26.2079 8.51386V10.1185C27.7237 10.5008 29.1206 11.1867 30.3611 12.1574L31.6464 11.1364C32.3244 10.596 33.314 10.7092 33.8567 11.3881L35.3206 13.2326C35.5801 13.5598 35.6989 13.976 35.6525 14.3905C35.6045 14.805 35.3953 15.1842 35.0681 15.4437L33.7395 16.5017C34.3531 17.9011 34.6708 19.3932 34.6811 20.9349L36.4021 21.3322C36.8096 21.4258 37.1612 21.6775 37.3822 22.0314C37.6033 22.3854 37.6748 22.8125 37.5804 23.2192L37.0495 25.5145C36.8536 26.3609 36.0088 26.8887 35.1632 26.6928L33.3706 26.2783C32.6682 27.5966 31.7266 28.7458 30.5703 29.6944L31.3845 31.4013C31.5646 31.7781 31.5866 32.21 31.4474 32.6032C31.3074 32.9965 31.0179 33.319 30.6419 33.4984L28.5165 34.5123C28.2955 34.6161 28.065 34.6665 27.8377 34.6665ZM27.785 21.0081C27.785 18.6176 25.8398 16.674 23.4493 16.674C21.0596 16.674 19.1152 18.6184 19.1152 21.0081C19.1152 23.3985 21.0596 25.343 23.4493 25.343C25.8406 25.343 27.785 23.3985 27.785 21.0081Z" fill="#3F51B5"/>
<path d="M2.79202 51.2762L4.50836 50.8963C4.53039 49.3538 4.86154 47.8632 5.49161 46.4662L4.17406 45.4004C3.84998 45.1377 3.64311 44.7569 3.59985 44.3416C3.55659 43.9263 3.68087 43.5102 3.94359 43.1869L5.42632 41.3565C5.973 40.6808 6.96489 40.5778 7.639 41.1245L8.90777 42.1525C10.1317 41.2141 11.5035 40.5495 12.9886 40.1758V38.572C12.9886 37.7036 13.6934 36.9988 14.5618 36.9988H16.9169C17.7853 36.9988 18.49 37.7036 18.49 38.572V40.1774C20.0074 40.5589 21.4052 41.2456 22.644 42.2162L23.9285 41.1952C24.255 40.9349 24.6664 40.8161 25.0864 40.8633C25.5009 40.9113 25.8801 41.1197 26.1397 41.447L27.6051 43.2899C28.1462 43.9696 28.033 44.9599 27.3534 45.5018L26.0232 46.559C26.6384 47.9631 26.9569 49.4545 26.9664 50.993L28.6874 51.3903C29.0941 51.4847 29.4465 51.7348 29.6675 52.0903C29.8878 52.4435 29.9601 52.8706 29.8657 53.2781L29.3348 55.5734C29.1389 56.4197 28.291 56.9452 27.4493 56.7517L25.6551 56.3379C24.9527 57.6571 24.0111 58.8063 22.8564 59.7541L23.6698 61.4594C23.8499 61.8362 23.8727 62.2688 23.7335 62.6621C23.5927 63.0554 23.304 63.3772 22.928 63.5573L20.8026 64.5712C20.5847 64.675 20.3535 64.7246 20.1269 64.7246C19.5401 64.7246 18.9754 64.3942 18.7056 63.8279L17.8765 62.0919C16.4386 62.3695 14.9354 62.3648 13.5093 62.0753L12.6669 63.8003C12.2862 64.5806 11.3439 64.9063 10.5628 64.5256L8.44683 63.4936C8.07162 63.3111 7.78452 62.9862 7.64923 62.5921C7.51314 62.1981 7.53832 61.7654 7.72238 61.3902L8.54988 59.6951C7.40224 58.7394 6.46934 57.5808 5.77792 56.2522L3.98606 56.6502C3.57704 56.7407 3.15149 56.6659 2.79988 56.4402C2.44827 56.216 2.19971 55.8621 2.10925 55.4538L1.60033 53.1546C1.40762 52.3043 1.94329 51.465 2.79202 51.2762ZM11.4005 51.0662C11.4005 53.4566 13.3449 55.4011 15.7338 55.4011C18.1235 55.4011 20.0695 53.4566 20.0695 51.0662C20.0695 48.6757 18.1235 46.7313 15.7338 46.7313C13.3449 46.7321 11.4005 48.6765 11.4005 51.0662Z" fill="#3F51B5"/>
</g>
</g>
<defs>
<clipPath id="clip0_6511_736">
<rect y="0.719971" width="80" height="80" rx="10" fill="white"/>
</clipPath>
<clipPath id="clip1_6511_736">
<rect width="75" height="75" fill="white" transform="matrix(-1 0 0 1 76.5625 0.843506)"/>
</clipPath>
</defs>
</svg>
