<svg width="80" height="81" viewBox="0 0 80 81" fill="none" xmlns="http://www.w3.org/2000/svg">
<g clip-path="url(#clip0_6511_751)">
<path d="M73.7305 69.9894H10.3971C6.04297 69.9894 2.48047 66.4269 2.48047 62.0728V10.6144C2.48047 6.26025 6.04297 2.69775 10.3971 2.69775H73.7305C78.0846 2.69775 81.6471 6.26025 81.6471 10.6144V62.0728C81.6471 66.4269 78.0846 69.9894 73.7305 69.9894Z" fill="#3F51B5"/>
<path d="M65.8138 22.4894H55.918L51.9596 18.5311L55.918 14.5728H65.8138L69.7721 18.5311L65.8138 22.4894ZM65.8138 58.1144H55.918L51.9596 54.1561L55.918 50.1978H65.8138L69.7721 54.1561L65.8138 58.1144ZM67.793 48.2186V24.4686L71.7513 20.5103L75.7096 24.4686V48.2186L71.7513 52.1769L67.793 48.2186ZM46.0221 48.2186V24.4686L49.9805 20.5103L53.9388 24.4686V48.2186L49.9805 52.1769L46.0221 48.2186ZM28.2096 22.4894H18.3138L14.3555 18.5311L18.3138 14.5728H28.2096L32.168 18.5311L28.2096 22.4894ZM28.2096 58.1144H18.3138L14.3555 54.1561L18.3138 50.1978H28.2096L32.168 54.1561L28.2096 58.1144ZM30.1888 48.2186V24.4686L34.1471 20.5103L38.1055 24.4686V48.2186L34.1471 52.1769L30.1888 48.2186ZM8.41797 48.2186V24.4686L12.3763 20.5103L16.3346 24.4686V48.2186L12.3763 52.1769L8.41797 48.2186Z" fill="#FAFAFA"/>
</g>
<defs>
<clipPath id="clip0_6511_751">
<rect y="0.719971" width="80" height="80" rx="10" fill="white"/>
</clipPath>
</defs>
</svg>
