<svg width="80" height="81" viewBox="0 0 80 81" fill="none" xmlns="http://www.w3.org/2000/svg">
<g clip-path="url(#clip0_6511_764)">
<g clip-path="url(#clip1_6511_764)">
<path d="M7.19141 19.3428V8.43628H18.0981H61.7822H72.8495V19.3428V63.1872V74.0944H61.7822H18.2588H7.19141V63.1877V19.3428Z" fill="#2F2D30"/>
<path d="M40.0203 80.5598C61.7216 80.5598 79.314 62.9674 79.314 41.2661C79.314 19.5648 61.7216 1.97241 40.0203 1.97241C18.319 1.97241 0.726562 19.5648 0.726562 41.2661C0.726562 62.9674 18.319 80.5598 40.0203 80.5598Z" fill="#3F51B5"/>
<path d="M40.0189 75.086C58.697 75.086 73.8386 59.9444 73.8386 41.2662C73.8386 22.5881 58.697 7.44653 40.0189 7.44653C21.3408 7.44653 6.19922 22.5881 6.19922 41.2662C6.19922 59.9444 21.3408 75.086 40.0189 75.086Z" fill="#2F2D30"/>
<path d="M52.4128 43.8907L50.6799 34.4203C57.4249 31.8058 64.6938 31.8054 71.0909 34.4743C69.2688 26.1172 64.1613 18.9876 57.1873 14.51C50.8226 17.1349 45.6311 22.2907 42.6867 28.8286L33.1488 30.4856C30.6495 23.8052 30.6915 16.528 33.3291 10.2034C24.8929 12.0165 17.7004 17.1763 13.2107 24.2267C15.8453 30.539 20.9725 35.6877 27.4659 38.6184L29.1801 48.1156C22.5121 50.5914 15.256 50.5379 8.94922 47.9019C10.7379 56.3343 15.8682 63.5317 22.8909 68.0405C29.2413 65.4216 34.4232 60.2823 37.3714 53.7651L46.9566 51.9136C49.5106 58.6279 49.4908 65.9595 46.8419 72.3267C55.1991 70.5042 62.3287 65.396 66.806 58.4212C64.1708 52.0339 58.9846 46.8293 52.4128 43.8907Z" fill="#3F51B5"/>
<path d="M40.019 53.0939C46.5512 53.0939 51.8466 47.7985 51.8466 41.2663C51.8466 34.7341 46.5512 29.4387 40.019 29.4387C33.4868 29.4387 28.1914 34.7341 28.1914 41.2663C28.1914 47.7985 33.4868 53.0939 40.019 53.0939Z" fill="#FFDA44"/>
<path d="M40.0222 46.2688C42.7851 46.2688 45.0249 44.029 45.0249 41.2661C45.0249 38.5032 42.7851 36.2634 40.0222 36.2634C37.2593 36.2634 35.0195 38.5032 35.0195 41.2661C35.0195 44.029 37.2593 46.2688 40.0222 46.2688Z" fill="#FFCD00"/>
<g opacity="0.23">
<path d="M51.7881 41.3174C51.7881 37.944 50.3736 34.903 48.1082 32.7483L28.995 36.8842C28.4407 38.2536 28.1328 39.7491 28.1328 41.3174C28.1328 44.6907 29.5473 47.7317 31.8128 49.8864L50.9259 45.7505C51.4801 44.3811 51.7881 42.8856 51.7881 41.3174Z" fill="white"/>
</g>
<path d="M80.5625 41.3438C80.5625 33.4282 78.3045 25.8609 74.0977 19.3727V8.5147C74.0977 7.84851 73.5579 7.30856 72.8915 7.30856H62.0336C55.5452 3.10178 47.9779 0.84375 40.0627 0.84375C32.1471 0.84375 24.5798 3.10178 18.0916 7.30856H7.23345C6.56742 7.30856 6.02731 7.84835 6.02731 8.5147V19.3727C1.82053 25.8609 -0.4375 33.4282 -0.4375 41.3438C-0.4375 49.2591 1.82053 56.8265 6.02731 63.3147V74.1726C6.02731 74.8388 6.56726 75.3788 7.23345 75.3788H18.0914C24.5796 79.5856 32.1471 81.8436 40.0625 81.8436C47.9779 81.8436 55.5454 79.5856 62.0336 75.3788H72.8915C73.5577 75.3788 74.0977 74.839 74.0977 74.1726V63.3147C78.3045 56.8265 80.5625 49.2591 80.5625 41.3438ZM71.6856 9.72084V16.0376C70.7574 14.8824 69.7634 13.7691 68.7004 12.706C67.6375 11.6429 66.5242 10.6489 65.3688 9.72084H71.6856ZM8.43944 9.72084H14.7562C13.601 10.649 12.4877 11.643 11.4246 12.706C10.3614 13.7689 9.36761 14.8822 8.43944 16.0376V9.72084ZM8.43944 72.9665V66.6498C9.36761 67.805 10.3616 68.9182 11.4246 69.9814C12.4875 71.0445 13.6008 72.0385 14.7562 72.9665H8.43944ZM1.97462 41.3438C1.97462 20.342 19.0607 3.25587 40.0625 3.25587C61.0643 3.25587 78.1504 20.342 78.1504 41.3438C78.1504 62.3454 61.0643 79.4315 40.0625 79.4315C19.0607 79.4315 1.97462 62.3454 1.97462 41.3438ZM71.6856 72.9665H65.3688C66.524 72.0383 67.6373 71.0443 68.7004 69.9814C69.7635 68.9184 70.7575 67.8051 71.6856 66.6498V72.9665Z" fill="black"/>
<path d="M40.0638 35.1353C36.6405 35.1353 33.8555 37.9203 33.8555 41.3436C33.8555 44.767 36.6405 47.5518 40.0638 47.5518C43.4872 47.5518 46.2722 44.767 46.2722 41.3436C46.2722 37.9203 43.487 35.1353 40.0638 35.1353ZM40.0638 45.1397C37.9707 45.1397 36.2676 43.4368 36.2676 41.3436C36.2676 39.2503 37.9705 37.5474 40.0638 37.5474C42.1572 37.5474 43.8601 39.2503 43.8601 41.3436C43.8599 43.4368 42.157 45.1397 40.0638 45.1397Z" fill="black"/>
<path d="M64.8285 16.5764C58.2129 9.96064 49.4171 6.31738 40.0612 6.31738C30.7052 6.31738 21.9097 9.9608 15.2942 16.5764C8.67842 23.1921 5.03516 31.9879 5.03516 41.3437C5.03516 50.6995 8.67842 59.4953 15.2942 66.1109C21.9097 72.7266 30.7055 76.3699 40.0613 76.3699C49.4171 76.3699 58.2129 72.7266 64.8287 66.1109C71.4442 59.4953 75.0875 50.6995 75.0875 41.3437C75.0875 31.9879 71.4441 23.1921 64.8285 16.5764ZM71.7165 33.4878C64.988 30.6406 57.2446 30.6111 50.093 33.4307C48.5318 31.4355 46.3972 29.9112 43.9376 29.1089C47.0735 22.3288 52.6163 17.2726 59.3577 15.0679C65.399 19.5164 69.8562 25.9944 71.7165 33.4878ZM39.9571 51.7994C34.1917 51.7994 29.5014 47.1091 29.5014 41.3437C29.5014 35.5783 34.1917 30.8879 39.9571 30.8879C45.7225 30.8879 50.4127 35.5783 50.4127 41.3437C50.4127 47.1091 45.7223 51.7994 39.9571 51.7994ZM56.881 13.4112C53.8016 14.6664 50.9147 16.5125 48.4276 18.8341C45.5402 21.5294 43.1673 24.8839 41.5299 28.5753C41.0139 28.5122 40.4896 28.4758 39.9569 28.4758C37.8856 28.4758 35.9287 28.9706 34.1936 29.8438C31.6558 22.8518 32.0189 15.3875 35.2243 9.08863C36.8031 8.8529 38.4179 8.72935 40.0612 8.72935C46.2104 8.72966 51.9669 10.4411 56.881 13.4112ZM32.2994 9.66544C31.0028 12.7343 30.2624 16.0871 30.1433 19.4935C30.0063 23.4049 30.6853 27.4174 32.1086 31.1569C30.057 32.7411 28.4946 34.9284 27.6919 37.4529C20.9662 34.3306 15.9311 28.8261 13.7137 22.1458C18.1826 16.0293 24.7256 11.5215 32.2994 9.66544ZM12.0648 24.6322C14.8077 31.325 20.1877 36.7734 27.1763 39.8688C27.1208 40.3532 27.0891 40.8447 27.0891 41.3437C27.0891 43.4375 27.5951 45.4143 28.4862 47.1634C21.5106 49.6733 14.0727 49.2982 7.79517 46.0996C7.56736 44.5465 7.44728 42.9588 7.44728 41.3436C7.44744 35.2396 9.13467 29.5228 12.0648 24.6322ZM8.36264 49.0213C11.4266 50.3187 14.774 51.0617 18.1757 51.1852C18.5172 51.1974 18.8593 51.2037 19.2021 51.2037C22.7749 51.2037 26.4054 50.5322 29.8113 49.2444C31.4117 51.295 33.6166 52.8519 36.1581 53.6386C33.018 60.3895 27.4905 65.42 20.7648 67.6194C14.6759 63.1357 10.1959 56.5904 8.36264 49.0213ZM23.2418 69.2762C26.3347 68.0157 29.2326 66.1591 31.7273 63.823C34.5937 61.1389 36.9488 57.8049 38.5799 54.1368C39.0325 54.1852 39.4916 54.2115 39.9569 54.2115C42.1257 54.2115 44.1699 53.67 45.9644 52.7182C48.5437 59.7295 48.199 67.2582 44.9857 73.5863C43.3792 73.8307 41.735 73.9578 40.0615 73.9578C33.9124 73.9578 28.1559 72.2463 23.2418 69.2762ZM47.9186 72.9984C50.7665 66.2781 50.8202 58.5377 48.0281 51.355C49.9814 49.7771 51.4665 47.6423 52.2362 45.1922C59.0343 48.3179 64.1223 53.878 66.3359 60.6413C61.888 66.6814 55.4111 71.1383 47.9186 72.9984ZM67.996 58.1594C65.2503 51.3796 59.8108 45.8739 52.7434 42.774C52.7956 42.3042 52.8247 41.8273 52.8247 41.3436C52.8247 39.2425 52.3153 37.2594 51.4184 35.5059C58.3724 32.8971 65.8796 33.1928 72.2054 36.3666C72.2371 36.3826 72.2697 36.3954 72.3022 36.4083C72.5475 38.0181 72.6751 39.6663 72.6751 41.3436C72.6752 47.4912 70.9649 53.2461 67.996 58.1594Z" fill="black"/>
</g>
</g>
<defs>
<clipPath id="clip0_6511_764">
<rect y="0.719971" width="80" height="80" rx="10" fill="white"/>
</clipPath>
<clipPath id="clip1_6511_764">
<rect width="81" height="81" fill="white" transform="translate(-0.4375 0.843506)"/>
</clipPath>
</defs>
</svg>
