<svg width="34" height="34" viewBox="0 0 34 34" fill="none" xmlns="http://www.w3.org/2000/svg">
<path d="M27.9677 2.71484H16.5613C16.2323 2.71484 15.9032 2.82452 15.4645 3.37291L14.9161 4.36001H1.42581C0.658064 4.36001 0 4.96323 0 5.78581V23.8826C0 24.6503 0.658064 25.1987 1.42581 25.1987H27.1452C27.9129 25.1987 28.5161 24.6503 28.5161 23.8826V9.84388V5.78581V3.42775C28.5161 3.09871 28.2968 2.71484 27.9677 2.71484Z" fill="#3F51B5"/>
<path d="M27.9677 21.4697C28.3516 21.1955 28.5161 20.8116 28.5161 20.3181V9.84388V5.78581V3.42775C28.5161 3.09871 28.2968 2.71484 27.9677 2.71484H16.5613C16.2323 2.71484 15.9032 2.82452 15.4645 3.37291L14.9161 4.36001H1.42581C0.712903 4.36001 0.109677 4.90839 0 5.6213L27.9677 21.4697Z" fill="#3F51B5"/>
<path d="M0.714844 6.00488L27.9697 21.3597C28.3536 21.0855 28.5181 20.8113 28.5181 20.3178V9.84359V7.26617L26.8181 6.00488H0.714844Z" fill="#3F51B5"/>
<path d="M26.3243 6.00488H2.19531V23.5533H26.3243V6.00488Z" fill="white"/>
<path d="M26.3208 6.00488H14.8047V23.5533H26.3208V6.00488Z" fill="#EFEFEF"/>
<path d="M28.571 24.4309C28.571 25.1987 27.9129 25.7471 27.1452 25.7471H1.42581C0.658064 25.7471 0 25.1987 0 24.4309L0.43871 10.0632C0.43871 9.24062 1.09677 8.74707 1.86452 8.74707H26.7065C27.4742 8.74707 28.1323 9.24062 28.1323 10.0632L28.571 24.4309Z" fill="#3F51B5"/>
<path d="M28.4064 25.1438L0.603226 9.45996C0.548387 9.62448 0.43871 9.84383 0.43871 10.0083L0 24.4309C0 25.1987 0.658064 25.7471 1.42581 25.7471H27.1452C27.6935 25.7471 28.1323 25.5825 28.4064 25.1438Z" fill="#3F51B5"/>
<path d="M33.3943 8.74609H30.1588V9.29448V11.7622V21.7429V25.1977C30.1588 25.2525 30.1588 25.1977 30.1588 25.2525C30.1588 27.0622 29.7749 27.3913 28.6781 27.3913H6.57812V29.1461C6.57812 29.2009 6.63296 29.2558 6.63296 29.3106V29.859C6.63296 30.6267 7.23619 31.2848 8.00393 31.2848H32.6265C33.7233 31.2848 33.9975 30.3525 33.9975 29.859V29.2009C33.9975 29.1461 33.9975 29.2558 33.9975 29.2009V25.7461V15.7106V13.2429V11.8171V9.56867C33.9975 9.23964 33.7233 8.74609 33.3943 8.74609Z" fill="#3F51B5"/>
<path d="M20.1781 27.3926H6.57812V29.1474C6.57812 29.0926 6.57812 29.2023 6.57812 29.1474V30.2442C6.57812 31.0119 7.23619 31.2313 8.00393 31.2313H27.1426L20.1781 27.3926Z" fill="#3F51B5"/>
</svg>
