<svg width="34" height="34" viewBox="0 0 34 34" fill="none" xmlns="http://www.w3.org/2000/svg">
<path d="M15.9811 14.1082C15.9811 14.6716 16.4378 15.1282 17.0011 15.1282C17.5644 15.1282 18.0211 14.6716 18.0211 14.1082H15.9811ZM18.0211 6.11961C18.0211 5.55628 17.5644 5.09961 17.0011 5.09961C16.4378 5.09961 15.9811 5.55628 15.9811 6.11961H18.0211ZM13.3438 9.73933C13.8565 9.50589 14.0828 8.90101 13.8494 8.38833C13.6159 7.87566 13.011 7.64931 12.4984 7.88277L13.3438 9.73933ZM7.48107 17.2172L6.46094 17.2119L6.46114 17.229L7.48107 17.2172ZM17.0011 26.5196L17.0128 25.4996C17.005 25.4996 16.9971 25.4996 16.9894 25.4996L17.0011 26.5196ZM26.5211 17.2172L27.5412 17.229L27.5411 17.2119L26.5211 17.2172ZM21.5038 7.88277C20.991 7.64931 20.3862 7.87566 20.1527 8.38833C19.9194 8.90101 20.1457 9.50589 20.6584 9.73933L21.5038 7.88277ZM18.0211 14.1082V6.11961H15.9811V14.1082H18.0211ZM12.4984 7.88277C8.83894 9.54914 6.482 13.1909 6.46094 17.2119L8.50106 17.2225C8.51796 13.9972 10.4084 11.076 13.3438 9.73933L12.4984 7.88277ZM6.46114 17.229C6.52819 22.9899 11.2521 27.6057 17.0128 27.5396L16.9894 25.4996C12.3551 25.5529 8.55494 21.8396 8.50101 17.2054L6.46114 17.229ZM16.9894 27.5396C22.7501 27.6057 27.4743 22.9899 27.5412 17.229L25.5012 17.2054C25.4472 21.8396 21.6471 25.5529 17.0128 25.4996L16.9894 27.5396ZM27.5411 17.2119C27.52 13.1909 25.1632 9.54914 21.5038 7.88277L20.6584 9.73933C23.5937 11.076 25.4842 13.9972 25.5011 17.2225L27.5411 17.2119Z" fill="#3F51B5"/>
</svg>
