<svg width="34" height="34" viewBox="0 0 34 34" fill="none" xmlns="http://www.w3.org/2000/svg">
<g clip-path="url(#clip0_9215_407)">
<path d="M3.0239 29.7006C1.36733 29.7006 0 28.3596 0 26.6767V3.09031C0 1.43374 1.34103 0.0664062 3.0239 0.0664062H25.2167C26.8733 0.0664062 28.2406 1.40744 28.2406 3.09031V14.2393L28.1354 14.213C27.6884 14.0815 27.2677 14.0289 26.7944 14.0289H26.7681L26.7418 13.9501H26.6629V3.09031C26.6629 2.32776 25.9793 1.64409 25.2167 1.64409H3.0239C2.26135 1.64409 1.57769 2.32776 1.57769 3.09031V26.6767C1.57769 27.4393 2.26135 28.123 3.0239 28.123H14.6725L14.6988 28.1493C14.988 28.5437 14.8303 28.8329 14.7251 29.0433C14.6199 29.2273 14.5673 29.3588 14.7514 29.5429L14.9092 29.7006H3.0239Z" fill="#3F51B5"/>
<path d="M4.73293 5.85098C4.44368 5.85098 4.20703 5.48285 4.20703 5.03584C4.20703 4.58883 4.44368 4.2207 4.73293 4.2207H13.6732C13.9624 4.2207 14.1991 4.58883 14.1991 5.03584C14.1991 5.48285 13.9624 5.85098 13.6732 5.85098H4.73293Z" fill="#3F51B5"/>
<path d="M13.6732 4.2998H4.73293C4.49627 4.2998 4.28592 4.61534 4.28592 5.03606C4.28592 5.45678 4.49627 5.77231 4.73293 5.77231H13.6732C13.9098 5.77231 14.1202 5.45678 14.1202 5.03606C14.1202 4.61534 13.9361 4.2998 13.6732 4.2998ZM4.62775 10.0584C4.39109 10.0584 4.20703 9.71653 4.20703 9.24323C4.20703 8.76992 4.39109 8.42809 4.62775 8.42809H11.0437C11.2803 8.42809 11.4644 8.76992 11.4644 9.24323C11.4644 9.71653 11.2803 10.0584 11.0437 10.0584H4.62775Z" fill="#3F51B5"/>
<path d="M11.044 8.5069H4.62804C4.44397 8.5069 4.3125 8.82244 4.3125 9.24316C4.3125 9.66388 4.44397 9.97941 4.62804 9.97941H11.044C11.228 9.97941 11.3595 9.66388 11.3595 9.24316C11.3595 8.82244 11.2017 8.5069 11.044 8.5069ZM24.2965 33.934C23.3762 33.934 22.377 33.8814 21.0886 33.7762C19.2216 33.6184 17.5125 32.7507 15.8559 31.1467L8.38819 23.8368C6.65274 22.1539 6.57385 19.9451 8.12525 18.2623C8.78262 17.5786 9.80811 17.1579 10.9125 17.1579C12.0169 17.1579 13.0161 17.5786 13.6472 18.3149C13.6734 18.3412 13.726 18.3937 13.8312 18.4463C13.8575 18.4726 13.9101 18.4989 13.9364 18.5252V15.0017V13.2663C13.9364 11.9252 13.9364 10.5579 13.9627 9.21686C13.989 7.21846 15.5404 5.69336 17.5914 5.69336H17.6177C19.5898 5.69336 21.0886 7.13957 21.1938 9.11168C21.2201 9.5587 21.2201 10.032 21.1938 10.5053V11.1101H21.5882C22.9555 11.1101 24.0073 11.5834 24.7699 12.5826C24.7961 12.6352 24.9539 12.6878 25.1643 12.6878C25.2432 12.6878 25.322 12.6878 25.3746 12.6615C25.6113 12.6352 25.8479 12.6089 26.0583 12.6089C27.1101 12.6089 28.0304 13.0296 28.8193 13.8973C28.9507 14.0288 29.24 14.134 29.5029 14.134H29.6081C29.7922 14.1077 30.0025 14.0814 30.1866 14.0814C32.1587 14.0814 33.7364 15.475 33.7627 17.2894C33.8416 20.6288 33.8941 23.9157 33.526 27.1762C33.079 31.1204 30.9754 33.224 26.8734 33.7499C26.1109 33.8814 25.2432 33.934 24.2965 33.934ZM10.781 18.6567C10.2288 18.6567 9.70293 18.8671 9.30851 19.2352C8.83521 19.7085 8.57226 20.2607 8.57226 20.8655C8.57226 21.4965 8.8615 22.1276 9.3874 22.6535L10.3866 23.6527C12.5691 25.8089 14.8304 28.0176 17.0918 30.2001C18.1962 31.2519 19.4583 31.9356 20.8519 32.1985C21.93 32.4089 23.0081 32.5141 24.0599 32.5141C25.0065 32.5141 25.9531 32.4352 26.8734 32.2511C30.2129 31.6463 31.738 30.0423 32.0535 26.9396C32.3428 23.9682 32.3165 20.918 32.2639 17.973V17.4997C32.2376 16.4216 31.475 15.6854 30.3969 15.6854C30.1077 15.6854 29.8447 15.738 29.5555 15.8432V19.9451C29.5555 20.3133 29.5555 21.0232 28.8193 21.0232H28.793C28.5563 21.0232 28.3722 20.9706 28.2671 20.8392C28.0567 20.6288 28.0304 20.2344 28.0304 19.9188V19.7611C28.0304 18.5515 28.0567 17.3157 28.0304 16.0798C28.0041 15.0017 27.2416 14.2392 26.1898 14.2392C25.9268 14.2392 25.6639 14.2918 25.4272 14.3706V18.6304C25.4272 18.9985 25.3483 19.2878 25.1643 19.4718C25.0328 19.6033 24.8487 19.6822 24.6121 19.6822H24.5858C23.8758 19.6559 23.8758 18.9196 23.8758 18.6567V16.9212V14.7125C23.8758 14.2129 23.6655 13.687 23.271 13.2926C22.9029 12.9244 22.4033 12.7141 21.9037 12.7141C21.6934 12.7141 21.4567 12.7404 21.2463 12.8193V14.7125C21.2463 15.6065 21.2463 16.5531 21.1938 17.4734C21.1675 17.7101 20.9571 17.8941 20.7467 18.0782C20.6679 18.1571 20.5627 18.236 20.4838 18.3149L20.4049 18.3937L20.3523 18.2623C20.2997 18.1834 20.2209 18.1045 20.142 18.0519C19.9842 17.8679 19.8001 17.6838 19.695 17.4734C19.6161 17.3157 19.6424 17.1316 19.6424 16.9738V16.7635V14.4758C19.6424 12.793 19.6424 11.0575 19.6161 9.34834C19.6161 8.08619 18.8009 7.24475 17.6177 7.21846C16.3292 7.21846 15.4615 8.13878 15.4615 9.47981V21.8647L15.1197 22.075L15.0934 22.0224C14.8567 21.7595 14.5938 21.4965 14.3571 21.2336C13.8049 20.6551 13.2264 20.024 12.648 19.4455C12.1221 18.9459 11.4647 18.6567 10.781 18.6567Z" fill="#3F51B5"/>
</g>
<defs>
<clipPath id="clip0_9215_407">
<rect width="34" height="34" fill="white"/>
</clipPath>
</defs>
</svg>
