<svg width="34" height="34" viewBox="0 0 34 34" fill="none" xmlns="http://www.w3.org/2000/svg">
<g clip-path="url(#clip0_9215_397)">
<path d="M32.6548 18.7302C32.9612 18.3363 33.11 17.8285 32.9743 17.3106L28.9519 2.06429C28.7185 1.18305 27.8124 0.654942 26.9327 0.888357L1.2299 7.66529C0.353053 7.89729 -0.176543 8.80626 0.0539632 9.68601L4.07639 24.9309C4.3069 25.8106 5.21729 26.3388 6.09711 26.1083L15.1792 23.7127V28.8176C15.1792 31.6728 19.9107 33.1669 24.5882 33.1669C29.2628 33.1669 34.0001 31.6728 34.0001 28.8177V21.0762C34 20.1468 33.4908 19.3648 32.6548 18.7302ZM29.7441 13.475L30.1643 15.0623L25.055 16.4119L24.6377 14.8216L29.7441 13.475ZM26.7795 3.43137L27.5775 6.45439L19.5954 8.56114L18.7974 5.53812L26.7795 3.43137ZM23.1977 15.2009L23.6062 16.7532C21.7169 16.8379 19.8786 17.1676 18.4021 17.7307L18.0899 16.5519L23.1977 15.2009ZM5.40985 21.5912L4.9926 20.0068L10.1005 18.6557L10.5206 20.2489L5.40985 21.5912ZM11.5405 18.2779L16.6455 16.9284L17.0321 18.3829C16.908 18.4588 16.7914 18.5376 16.6775 18.6179L11.9578 19.8638L11.5405 18.2779ZM32.2959 28.6921C32.2959 30.3568 28.8469 31.7049 24.5882 31.7049C20.3338 31.7049 16.8819 30.3553 16.8819 28.6921V26.8173C16.8819 26.7546 16.9183 26.6977 16.9285 26.6379C17.1722 28.2165 20.4899 29.4683 24.5882 29.4683C28.6879 29.4683 32.0071 28.2165 32.2493 26.6379C32.2595 26.6977 32.2959 26.7546 32.2959 26.8173V28.6921ZM32.2959 25.0038C32.2959 26.667 28.8469 28.0151 24.5882 28.0151C20.3338 28.0151 16.8819 26.667 16.8819 25.0038V23.129C16.8819 23.0677 16.9183 23.0094 16.9285 22.9496C17.1722 24.5267 20.4899 25.7815 24.5882 25.7815C28.6879 25.7815 32.0071 24.5267 32.2493 22.9496C32.2595 23.0094 32.2959 23.0677 32.2959 23.129V25.0038ZM24.5881 24.0861C20.3338 24.0861 16.8818 22.738 16.8818 21.0762C16.8818 19.4144 20.3337 18.0663 24.5881 18.0663C28.8469 18.0663 32.2959 19.4144 32.2959 21.0762C32.2959 22.738 28.8469 24.0861 24.5881 24.0861Z" fill="#3F51B5"/>
</g>
<defs>
<clipPath id="clip0_9215_397">
<rect width="34" height="34" fill="white"/>
</clipPath>
</defs>
</svg>
