<svg width="46" height="41" viewBox="0 0 46 41" fill="none" xmlns="http://www.w3.org/2000/svg">
<path fill-rule="evenodd" clip-rule="evenodd" d="M31.6235 12.0653C31.6235 17.5234 27.9243 22.2077 22.9985 22.2077C18.0688 22.2077 14.3735 17.5234 14.3735 12.0636C14.3735 6.60718 17.5551 3.41602 22.9985 3.41602C28.4418 3.41602 31.6235 6.60547 31.6235 12.0653ZM7.86063 34.4086C8.59855 35.191 11.7764 37.5827 22.9985 37.5827C34.2205 37.5827 37.3965 35.191 38.1363 34.4103C38.2049 34.3353 38.2556 34.2485 38.2853 34.1554C38.3149 34.0623 38.3229 33.9647 38.3088 33.8688C38.1401 32.362 36.6183 25.6243 22.9985 25.6243C9.37863 25.6243 7.8568 32.362 7.68621 33.8688C7.67233 33.9649 7.68065 34.0625 7.71064 34.1556C7.74063 34.2487 7.79168 34.3337 7.86063 34.4086Z" fill="#3F51B5"/>
</svg>
