<svg width="51" height="51" viewBox="0 0 51 51" fill="none" xmlns="http://www.w3.org/2000/svg">
<path d="M25.7563 27.1571C25.6075 27.1358 25.4163 27.1358 25.2463 27.1571C21.5063 27.0296 18.5312 23.9696 18.5312 20.2083C18.5312 16.362 21.6337 13.2383 25.5013 13.2383C29.3475 13.2383 32.4713 16.362 32.4713 20.2083C32.45 23.9696 29.4963 27.0296 25.7563 27.1571Z" stroke="#3F51B5" stroke-width="2.5" stroke-linecap="round" stroke-linejoin="round"/>
<path d="M39.8247 41.1829C36.0422 44.6467 31.0272 46.7504 25.5022 46.7504C19.9772 46.7504 14.9622 44.6467 11.1797 41.1829C11.3922 39.1854 12.6672 37.2304 14.9409 35.7004C20.7634 31.8329 30.2835 31.8329 36.0635 35.7004C38.3373 37.2304 39.6122 39.1854 39.8247 41.1829Z" stroke="#3F51B5" stroke-width="2.5" stroke-linecap="round" stroke-linejoin="round"/>
<path d="M25.5 46.75C37.2359 46.75 46.75 37.2359 46.75 25.5C46.75 13.7639 37.2359 4.25 25.5 4.25C13.7639 4.25 4.25 13.7639 4.25 25.5C4.25 37.2359 13.7639 46.75 25.5 46.75Z" stroke="#3F51B5" stroke-width="2.5" stroke-linecap="round" stroke-linejoin="round"/>
</svg>
