<svg width="48" height="45" viewBox="0 0 48 45" fill="none" xmlns="http://www.w3.org/2000/svg">
<path d="M30.9525 35.3835L30.9593 35.3784L30.9599 35.3699C30.9693 35.2475 30.9795 35.1562 30.9877 35.0831C30.9887 35.0745 30.9896 35.0662 30.9905 35.0582C30.9991 34.9813 31.0048 34.9242 31.0032 34.8703C30.9999 34.7615 30.9666 34.6676 30.8734 34.4495L30.856 34.457L30.8734 34.4495C30.7614 34.1877 30.6348 34.0282 30.491 33.9427C30.3467 33.8569 30.1881 33.8473 30.016 33.8789C29.8445 33.9103 29.6576 33.9831 29.4558 34.0642C29.4413 34.07 29.4267 34.0759 29.4121 34.0818C29.2221 34.1583 29.0183 34.2403 28.799 34.3029C25.8832 35.1347 23.3915 35.348 20.4199 34.5693C19.8408 34.4174 19.4096 34.2733 19.0535 34.1543C18.8659 34.0916 18.6991 34.0359 18.5424 33.9896C18.0888 33.8557 17.7253 33.8032 17.2022 33.8974L17.1935 33.899L17.1891 33.9067C17.0243 34.197 16.9435 34.4868 16.9502 34.77C16.9568 35.0534 17.0509 35.3289 17.2339 35.5907C17.3055 35.6932 17.4358 35.7937 17.6081 35.8914C17.7809 35.9893 17.9977 36.0855 18.2445 36.1786C18.7382 36.365 19.3535 36.5399 19.9793 36.6933C21.2308 36.9999 22.5266 37.2205 22.9808 37.2725C24.3202 37.4258 26.2844 37.1131 27.4776 36.842C28.1133 36.6978 28.6392 36.4933 29.1954 36.2769C29.2352 36.2614 29.2751 36.2459 29.3152 36.2304C29.5186 36.1513 29.6748 36.0939 29.8015 36.0473C29.9806 35.9815 30.1006 35.9374 30.2111 35.8847C30.401 35.7941 30.5643 35.6775 30.9525 35.3835ZM31.4684 44.3984H31.4683L21.1827 44.42C20.7145 44.4209 20.1418 44.43 19.5049 44.44C18.3437 44.4583 16.9691 44.48 15.6256 44.4617C14.5856 44.4476 13.5649 44.4095 12.6772 44.3275C11.7893 44.2454 11.0359 44.1194 10.5295 43.9301C10.5294 43.9301 10.5293 43.93 10.5292 43.93L9.64558 43.5648C9.49942 43.5023 9.31847 43.3653 9.12279 43.1845C8.92752 43.0041 8.71903 42.7814 8.51787 42.5492C8.11549 42.0848 7.74348 41.5836 7.56661 41.3093C7.25219 40.8213 7.04074 40.1081 6.90098 39.2639C6.7613 38.4201 6.69353 37.4473 6.66531 36.4417C6.62926 35.1569 6.65777 33.8202 6.68314 32.6309C6.69749 31.9578 6.71084 31.3319 6.71091 30.7894L6.71015 20.8712C6.71639 18.7666 6.86526 17.2844 7.41996 16.1334C7.97411 14.9836 8.93462 14.1617 10.5708 13.3814C11.0077 13.173 11.6329 13.0323 12.3561 12.9386C13.0789 12.845 13.898 12.7985 14.7221 12.7779C15.784 12.7514 16.8523 12.7678 17.7329 12.7813C18.2197 12.7888 18.6492 12.7954 18.9884 12.7933C19.3531 12.7907 19.7188 12.7913 20.0848 12.7921L20.1173 12.7922C20.4725 12.7929 20.8279 12.7936 21.1828 12.7914C21.3526 12.7905 21.5256 12.8004 21.6947 12.8101C21.7227 12.8117 21.7506 12.8133 21.7784 12.8149C21.9734 12.8258 22.1615 12.8338 22.3294 12.821C22.4971 12.8082 22.6466 12.7745 22.7632 12.7002C22.8807 12.6254 22.9632 12.5106 22.9984 12.3394L22.9984 12.3394C22.9994 12.3342 23.0002 12.3255 23.0009 12.3148C23.0016 12.3036 23.0023 12.2889 23.003 12.271C23.0043 12.2352 23.0056 12.1863 23.0068 12.1261C23.0091 12.0056 23.0111 11.8398 23.0128 11.6436C23.0161 11.2511 23.018 10.737 23.0182 10.221C23.0185 9.7051 23.0171 9.18727 23.0138 8.78742C23.0121 8.58751 23.01 8.41703 23.0074 8.291C23.0061 8.228 23.0046 8.17602 23.0031 8.137C23.0015 8.09854 22.9998 8.07138 22.9978 8.059C22.9402 7.7108 22.7944 7.52369 22.5979 7.37456C22.5085 7.30677 22.4087 7.24678 22.3028 7.1832C22.2931 7.17737 22.2834 7.17152 22.2736 7.16562C22.1566 7.09522 22.0324 7.01893 21.9048 6.92111C20.6113 5.92953 19.961 3.98596 21.0276 2.39334C21.7889 1.25637 22.8559 0.736938 23.912 0.718966C24.9685 0.700987 26.0155 1.18487 26.7361 2.05737C27.353 2.80418 27.7623 4.26553 27.2342 5.48715C26.9443 6.15738 26.6722 6.51809 26.343 6.79426C26.1781 6.93261 25.9985 7.05009 25.7942 7.17479C25.7255 7.21678 25.6538 7.25962 25.579 7.30435C25.432 7.39227 25.2728 7.48748 25.0991 7.5978L25.0903 7.60342L25.0904 7.6139L25.1335 12.7647L25.1336 12.7834L25.1523 12.7835L33.5255 12.8024C33.6032 12.8026 33.6801 12.8027 33.7563 12.8028C35.443 12.8051 36.7679 12.807 38.0152 13.6088C39.0361 14.2652 39.746 14.9547 40.2371 15.7067C40.7281 16.4586 41.0009 17.2741 41.1463 18.1834C41.2918 19.0929 41.3096 20.096 41.291 21.2231C41.2843 21.6283 41.2728 22.0496 41.2609 22.4883C41.2397 23.2694 41.217 24.1055 41.2169 25.0038C41.2167 25.4569 41.2242 26.2136 41.2335 27.1519C41.2366 27.4577 41.2398 27.7827 41.243 28.1229C41.2561 29.507 41.269 31.1409 41.2681 32.7413C41.2672 34.3417 41.2525 35.9083 41.2104 37.1577C41.1893 37.7824 41.1614 38.3277 41.125 38.7581C41.0885 39.1892 41.0436 39.5032 40.9892 39.6667C40.1724 42.1177 39.1567 43.3003 37.6667 43.8714C36.9207 44.1573 36.0546 44.2904 35.0328 44.3513C34.1301 44.4051 33.107 44.4025 31.9388 44.3995C31.7845 44.3991 31.6277 44.3987 31.4684 44.3984ZM43.2257 21.9769H43.9257C45.806 21.9769 47.3442 23.5218 47.3442 25.4108V31.6261C47.3442 33.515 45.806 35.0599 43.9257 35.0599H43.2257V21.9769ZM4.01951 21.9769H4.71948V35.0599H4.01951C2.13913 35.0599 0.600929 33.515 0.600929 31.6261V25.4108C0.600929 23.5218 2.13913 21.9769 4.01951 21.9769ZM30.6614 28.0047C31.0434 28.0047 31.4111 27.9448 31.7563 27.835C32.1539 27.729 32.4312 27.5821 32.6383 27.4142C33.6078 26.776 34.2474 25.6817 34.2474 24.4389C34.2474 22.4695 32.6416 20.8731 30.6614 20.8731C29.8059 20.8731 29.021 21.1711 28.4044 21.6682C27.8478 22.0812 27.4724 22.6501 27.2699 23.2781C27.1437 23.6418 27.0754 24.0326 27.0754 24.4389C27.0754 24.7953 27.1278 25.1391 27.2258 25.4638C27.5928 26.8268 28.7004 27.9786 30.4722 27.9998C30.5348 28.0032 30.5981 28.0047 30.6614 28.0047ZM18.5042 27.9766C19.6025 27.6575 20.2862 26.893 20.6121 25.9849C20.8387 25.5176 20.9658 24.9927 20.9658 24.4389C20.9658 22.4695 19.36 20.8731 17.3798 20.8731C15.3995 20.8731 13.7937 22.4695 13.7937 24.4389C13.7937 25.5375 14.2932 26.5201 15.079 27.1738C15.9137 27.9829 17.1469 28.371 18.5042 27.9766Z" fill="white" stroke="white" stroke-width="0.0377953"/>
</svg>
