<svg width="142" height="90" viewBox="0 0 142 90" fill="none" xmlns="http://www.w3.org/2000/svg">
<path d="M30.9525 57.3835L30.9593 57.3784L30.9599 57.3699C30.9693 57.2475 30.9795 57.1562 30.9877 57.0831C30.9887 57.0745 30.9896 57.0662 30.9905 57.0582C30.9991 56.9813 31.0048 56.9242 31.0032 56.8703C30.9999 56.7615 30.9666 56.6676 30.8734 56.4495L30.856 56.457L30.8734 56.4495C30.7614 56.1877 30.6348 56.0282 30.491 55.9427C30.3467 55.8569 30.1881 55.8473 30.016 55.8789C29.8445 55.9103 29.6576 55.9831 29.4558 56.0642C29.4413 56.07 29.4267 56.0759 29.4121 56.0818C29.2221 56.1583 29.0183 56.2403 28.799 56.3029C25.8832 57.1347 23.3915 57.348 20.4199 56.5693C19.8408 56.4174 19.4096 56.2733 19.0535 56.1543C18.8659 56.0916 18.6991 56.0359 18.5424 55.9896C18.0888 55.8557 17.7253 55.8032 17.2022 55.8974L17.1935 55.899L17.1891 55.9067C17.0243 56.197 16.9435 56.4868 16.9502 56.77C16.9568 57.0534 17.0509 57.3289 17.2339 57.5907C17.3055 57.6932 17.4358 57.7937 17.6081 57.8914C17.7809 57.9893 17.9977 58.0855 18.2445 58.1786C18.7382 58.365 19.3535 58.5399 19.9793 58.6933C21.2308 58.9999 22.5266 59.2205 22.9808 59.2725C24.3202 59.4258 26.2844 59.1131 27.4776 58.842C28.1133 58.6978 28.6392 58.4933 29.1954 58.2769C29.2352 58.2614 29.2751 58.2459 29.3152 58.2304C29.5186 58.1513 29.6748 58.0939 29.8015 58.0473C29.9806 57.9815 30.1006 57.9374 30.2111 57.8847C30.401 57.7941 30.5643 57.6775 30.9525 57.3835ZM31.4684 66.3984H31.4683L21.1827 66.42C20.7145 66.4209 20.1418 66.43 19.5049 66.44C18.3437 66.4583 16.9691 66.48 15.6256 66.4617C14.5856 66.4476 13.5649 66.4095 12.6772 66.3275C11.7893 66.2454 11.0359 66.1194 10.5295 65.9301C10.5294 65.9301 10.5293 65.93 10.5292 65.93L9.64558 65.5648C9.49942 65.5023 9.31847 65.3653 9.12279 65.1845C8.92752 65.0041 8.71903 64.7814 8.51787 64.5492C8.11549 64.0848 7.74348 63.5836 7.56661 63.3093C7.25219 62.8213 7.04074 62.1081 6.90098 61.2639C6.7613 60.4201 6.69353 59.4473 6.66531 58.4417C6.62926 57.1569 6.65777 55.8202 6.68314 54.6309C6.69749 53.9578 6.71084 53.3319 6.71091 52.7894L6.71015 42.8712C6.71639 40.7666 6.86526 39.2844 7.41996 38.1334C7.97411 36.9836 8.93462 36.1617 10.5708 35.3814C11.0077 35.173 11.6329 35.0323 12.3561 34.9386C13.0789 34.845 13.898 34.7985 14.7221 34.7779C15.784 34.7514 16.8523 34.7678 17.7329 34.7813C18.2197 34.7888 18.6492 34.7954 18.9884 34.7933C19.3531 34.7907 19.7188 34.7913 20.0848 34.7921L20.1173 34.7922C20.4725 34.7929 20.8279 34.7936 21.1828 34.7914C21.3526 34.7905 21.5256 34.8004 21.6947 34.8101C21.7227 34.8117 21.7506 34.8133 21.7784 34.8149C21.9734 34.8258 22.1615 34.8338 22.3294 34.821C22.4971 34.8082 22.6466 34.7745 22.7632 34.7002C22.8807 34.6254 22.9632 34.5106 22.9984 34.3394L22.9984 34.3394C22.9994 34.3342 23.0002 34.3255 23.0009 34.3148C23.0016 34.3036 23.0023 34.2889 23.003 34.271C23.0043 34.2352 23.0056 34.1863 23.0068 34.1261C23.0091 34.0056 23.0111 33.8398 23.0128 33.6436C23.0161 33.2511 23.018 32.737 23.0182 32.221C23.0185 31.7051 23.0171 31.1873 23.0138 30.7874C23.0121 30.5875 23.01 30.417 23.0074 30.291C23.0061 30.228 23.0046 30.176 23.0031 30.137C23.0015 30.0985 22.9998 30.0714 22.9978 30.059C22.9402 29.7108 22.7944 29.5237 22.5979 29.3746C22.5085 29.3068 22.4087 29.2468 22.3028 29.1832C22.2931 29.1774 22.2834 29.1715 22.2736 29.1656C22.1566 29.0952 22.0324 29.0189 21.9048 28.9211C20.6113 27.9295 19.961 25.986 21.0276 24.3933C21.7889 23.2564 22.8559 22.7369 23.912 22.719C24.9685 22.701 26.0155 23.1849 26.7361 24.0574C27.353 24.8042 27.7623 26.2655 27.2342 27.4872C26.9443 28.1574 26.6722 28.5181 26.343 28.7943C26.1781 28.9326 25.9985 29.0501 25.7942 29.1748C25.7255 29.2168 25.6538 29.2596 25.579 29.3044C25.432 29.3923 25.2728 29.4875 25.0991 29.5978L25.0903 29.6034L25.0904 29.6139L25.1335 34.7647L25.1336 34.7834L25.1523 34.7835L33.5255 34.8024C33.6032 34.8026 33.6801 34.8027 33.7563 34.8028C35.443 34.8051 36.7679 34.807 38.0152 35.6088C39.0361 36.2652 39.746 36.9547 40.2371 37.7067C40.7281 38.4586 41.0009 39.2741 41.1463 40.1834C41.2918 41.0929 41.3096 42.096 41.291 43.2231C41.2843 43.6283 41.2728 44.0496 41.2609 44.4883C41.2397 45.2694 41.217 46.1055 41.2169 47.0038C41.2167 47.4569 41.2242 48.2136 41.2335 49.1519C41.2366 49.4577 41.2398 49.7827 41.243 50.1229C41.2561 51.507 41.269 53.1409 41.2681 54.7413C41.2672 56.3417 41.2525 57.9083 41.2104 59.1577C41.1893 59.7824 41.1614 60.3277 41.125 60.7581C41.0885 61.1892 41.0436 61.5032 40.9892 61.6667C40.1724 64.1177 39.1567 65.3003 37.6667 65.8714C36.9207 66.1573 36.0546 66.2904 35.0328 66.3513C34.1301 66.4051 33.107 66.4025 31.9388 66.3995C31.7845 66.3991 31.6277 66.3987 31.4684 66.3984ZM43.2257 43.9769H43.9257C45.806 43.9769 47.3442 45.5218 47.3442 47.4108V53.6261C47.3442 55.515 45.806 57.0599 43.9257 57.0599H43.2257V43.9769ZM4.01951 43.9769H4.71948V57.0599H4.01951C2.13913 57.0599 0.600929 55.515 0.600929 53.6261V47.4108C0.600929 45.5218 2.13913 43.9769 4.01951 43.9769ZM30.6614 50.0047C31.0434 50.0047 31.4111 49.9448 31.7563 49.835C32.1539 49.729 32.4312 49.5821 32.6383 49.4142C33.6078 48.776 34.2474 47.6817 34.2474 46.4389C34.2474 44.4695 32.6416 42.8731 30.6614 42.8731C29.8059 42.8731 29.021 43.1711 28.4044 43.6682C27.8478 44.0812 27.4724 44.6501 27.2699 45.2781C27.1437 45.6418 27.0754 46.0326 27.0754 46.4389C27.0754 46.7953 27.1278 47.1391 27.2258 47.4638C27.5928 48.8268 28.7004 49.9786 30.4722 49.9998C30.5348 50.0032 30.5981 50.0047 30.6614 50.0047ZM18.5042 49.9766C19.6025 49.6575 20.2862 48.893 20.6121 47.9849C20.8387 47.5176 20.9658 46.9927 20.9658 46.4389C20.9658 44.4695 19.36 42.8731 17.3798 42.8731C15.3995 42.8731 13.7937 44.4695 13.7937 46.4389C13.7937 47.5375 14.2932 48.5201 15.079 49.1738C15.9137 49.9829 17.1469 50.371 18.5042 49.9766Z" fill="white" stroke="white" stroke-width="0.0377953"/>
<path d="M72.2039 11.1884L72.2039 11.1884C72.2022 10.3974 72.1951 9.59931 72.1879 8.79766C72.1617 5.85899 72.135 2.87304 72.374 0.0194369L73.9555 0.067837C73.986 0.163692 74.014 0.316455 74.0394 0.520756C74.0658 0.733736 74.0894 1.00149 74.1103 1.31678C74.1521 1.94733 74.1832 2.76724 74.2057 3.71779C74.2509 5.61885 74.2618 8.04172 74.2559 10.5158C74.2481 13.8207 74.2103 17.2159 74.184 19.5813C74.1709 20.7578 74.1607 21.6796 74.1583 22.2086C74.1421 25.927 74.1477 29.6465 74.1535 33.3662L74.1537 33.5129C74.1595 37.1836 74.1653 40.8545 74.1504 44.5244C74.1495 44.7379 74.1542 46.0949 74.1616 48.2118C74.1762 52.4128 74.2012 59.6068 74.2134 66.7963C74.2226 72.2025 74.2246 77.6062 74.2096 81.733C74.2021 83.7965 74.1903 85.5407 74.173 86.8063C74.1644 87.4392 74.1544 87.9523 74.1429 88.3259C74.1371 88.5126 74.131 88.6644 74.1244 88.7788C74.1186 88.8808 74.1125 88.952 74.1063 88.9918C73.9445 89.0092 73.644 89.0371 73.3479 89.0528C73.1954 89.0609 73.0443 89.0657 72.914 89.0642C72.7833 89.0628 72.6751 89.0549 72.6076 89.0382C72.4667 89.0032 72.3711 88.9697 72.306 88.9288C72.2421 88.8886 72.2078 88.8412 72.1896 88.7762C72.171 88.7097 72.1691 88.6244 72.1728 88.5081C72.1739 88.4719 72.1756 88.4328 72.1773 88.3905C72.1813 88.2979 72.1858 88.1903 72.1869 88.0651L72.1869 88.065L72.2039 11.1884Z" fill="white" stroke="white" stroke-width="0.0377953"/>
<mask id="path-3-inside-1_8924_278" fill="white">
<path d="M110.481 66.7383H105.405L120.085 26.7599H125.082L139.762 66.7383H134.686L122.74 33.0846H122.428L110.481 66.7383ZM112.355 51.1217H132.813V55.4163H112.355V51.1217Z"/>
</mask>
<path d="M110.481 66.7383H105.405L120.085 26.7599H125.082L139.762 66.7383H134.686L122.74 33.0846H122.428L110.481 66.7383ZM112.355 51.1217H132.813V55.4163H112.355V51.1217Z" fill="white"/>
<path d="M110.481 66.7383V66.7761H110.508L110.516 66.7509L110.481 66.7383ZM105.405 66.7383L105.37 66.7253L105.351 66.7761H105.405V66.7383ZM120.085 26.7599V26.7222H120.059L120.05 26.7469L120.085 26.7599ZM125.082 26.7599L125.118 26.7469L125.109 26.7222H125.082V26.7599ZM139.762 66.7383V66.7761H139.816L139.797 66.7253L139.762 66.7383ZM134.686 66.7383L134.651 66.7509L134.66 66.7761H134.686V66.7383ZM122.74 33.0846L122.775 33.072L122.767 33.0468H122.74V33.0846ZM122.428 33.0846V33.0468H122.401L122.392 33.072L122.428 33.0846ZM112.355 51.1217V51.084H112.317V51.1217H112.355ZM132.813 51.1217H132.85V51.084H132.813V51.1217ZM132.813 55.4163V55.4541H132.85V55.4163H132.813ZM112.355 55.4163H112.317V55.4541H112.355V55.4163ZM110.481 66.7005H105.405V66.7761H110.481V66.7005ZM105.441 66.7513L120.121 26.773L120.05 26.7469L105.37 66.7253L105.441 66.7513ZM120.085 26.7977H125.082V26.7222H120.085V26.7977ZM125.047 26.773L139.726 66.7513L139.797 66.7253L125.118 26.7469L125.047 26.773ZM139.762 66.7005H134.686V66.7761H139.762V66.7005ZM134.722 66.7256L122.775 33.072L122.704 33.0973L134.651 66.7509L134.722 66.7256ZM122.74 33.0468H122.428V33.1224H122.74V33.0468ZM122.392 33.072L110.445 66.7256L110.516 66.7509L122.463 33.0973L122.392 33.072ZM112.355 51.1595H132.813V51.084H112.355V51.1595ZM132.775 51.1217V55.4163H132.85V51.1217H132.775ZM132.813 55.3785H112.355V55.4541H132.813V55.3785ZM112.393 55.4163V51.1217H112.317V55.4163H112.393Z" fill="white" mask="url(#path-3-inside-1_8924_278)"/>
<path d="M18.9385 46.439C18.9385 47.2952 18.2405 47.9895 17.3791 47.9895C16.5178 47.9895 15.8197 47.2952 15.8197 46.439C15.8197 45.5827 16.5178 44.8885 17.3791 44.8885C18.2405 44.8885 18.9385 45.5827 18.9385 46.439Z" fill="white" stroke="white" stroke-width="0.0377953"/>
<path d="M32.2217 46.439C32.2217 47.2952 31.5237 47.9895 30.6623 47.9895C29.801 47.9895 29.1029 47.2952 29.1029 46.439C29.1029 45.5827 29.801 44.8885 30.6623 44.8885C31.5237 44.8885 32.2217 45.5827 32.2217 46.439Z" fill="white" stroke="white" stroke-width="0.0377953"/>
</svg>
