<svg id="visual" viewBox="0 0 900 600" width="900" height="600" xmlns="http://www.w3.org/2000/svg" xmlns:xlink="http://www.w3.org/1999/xlink" version="1.1"><path d="M369 0L368.2 14.3C367.3 28.7 365.7 57.3 342.7 85.8C319.7 114.3 275.3 142.7 258 171.2C240.7 199.7 250.3 228.3 261.3 257C272.3 285.7 284.7 314.3 303.2 343C321.7 371.7 346.3 400.3 328.7 428.8C311 457.3 251 485.7 232.7 514.2C214.3 542.7 237.7 571.3 249.3 585.7L261 600L0 600L0 585.7C0 571.3 0 542.7 0 514.2C0 485.7 0 457.3 0 428.8C0 400.3 0 371.7 0 343C0 314.3 0 285.7 0 257C0 228.3 0 199.7 0 171.2C0 142.7 0 114.3 0 85.8C0 57.3 0 28.7 0 14.3L0 0Z" fill="#3F51B5" stroke-linecap="round" stroke-linejoin="miter"></path></svg>