<svg width="28" height="29" viewBox="0 0 28 29" fill="none" xmlns="http://www.w3.org/2000/svg">
<path d="M8.16602 10.4167L11.5984 12.446C13.5994 13.6291 14.3993 13.6291 16.4003 12.446L19.8327 10.4167" stroke="#616161" stroke-width="1.75" stroke-linecap="round" stroke-linejoin="round"/>
<path d="M2.35238 16.2215C2.42865 19.7979 2.46678 21.5862 3.78643 22.9108C5.10608 24.2356 6.94271 24.2816 10.616 24.3739C12.8798 24.4309 15.1215 24.4309 17.3854 24.3739C21.0586 24.2816 22.8952 24.2356 24.2148 22.9108C25.5346 21.5862 25.5727 19.7979 25.6489 16.2215C25.6735 15.0715 25.6735 13.9283 25.6489 12.7784C25.5727 9.20192 25.5346 7.41369 24.2148 6.08902C22.8952 4.76435 21.0586 4.71821 17.3854 4.62592C15.1215 4.56903 12.8798 4.56903 10.6159 4.62591C6.94271 4.71819 5.10608 4.76433 3.78643 6.08901C2.46678 7.41368 2.42864 9.20191 2.35238 12.7783C2.32785 13.9283 2.32785 15.0715 2.35238 16.2215Z" stroke="#616161" stroke-width="1.75" stroke-linejoin="round"/>
</svg>
